/* XPM */
static char *_8d029330f5c4d4ec1630607512bf1c4myIPgPlRXN7E3k4r[] = {
/* columns rows colors chars-per-pixel */
"40 40 249 2 ",
"   c #003F00",
".  c #2D370A",
"X  c #113732",
"o  c #2E3E31",
"O  c #2A3C28",
"+  c #004401",
"@  c #004C00",
"#  c #044908",
"$  c #144C00",
"%  c #005401",
"&  c #005C03",
"*  c #00540D",
"=  c #005C0B",
"-  c #0C5605",
";  c #195705",
":  c #025C14",
">  c #005D1A",
",  c #025715",
"<  c #004E15",
"1  c #295A0E",
"2  c #235605",
"3  c #2B5914",
"4  c #2F4E11",
"5  c #006200",
"6  c #006C00",
"7  c #00620C",
"8  c #076505",
"9  c #186704",
"0  c #017300",
"q  c #057605",
"w  c #1A7A09",
"e  c #026412",
"r  c #0B6313",
"t  c #006A15",
"y  c #00631C",
"u  c #016B1B",
"i  c #0D6A19",
"p  c #116315",
"a  c #14641A",
"s  c #1A671C",
"d  c #1B6A1D",
"f  c #176916",
"g  c #067617",
"h  c #197919",
"j  c #277704",
"k  c #30720B",
"l  c #246716",
"z  c #38651D",
"x  c #35651A",
"c  c #217D12",
"v  c #28771B",
"b  c #3D7C1C",
"n  c #377618",
"m  c #2D6600",
"M  c #085D24",
"N  c #095C31",
"B  c #324236",
"V  c #354539",
"C  c #3A4A3D",
"Z  c #38473B",
"A  c #2A502F",
"S  c #006422",
"D  c #056A24",
"F  c #08692B",
"G  c #1E6B21",
"H  c #176527",
"J  c #08792A",
"K  c #1A7527",
"L  c #1B7233",
"P  c #236C23",
"I  c #256B29",
"U  c #3C6A23",
"Y  c #247225",
"T  c #2C752A",
"R  c #257A2B",
"E  c #2C7B2C",
"W  c #287626",
"Q  c #337A2D",
"!  c #36762B",
"~  c #256B32",
"^  c #276A31",
"/  c #237634",
"(  c #2C7234",
")  c #2B7B3A",
"_  c #357B33",
"`  c #32763A",
"'  c #387B39",
"]  c #407E1F",
"[  c #447F0F",
"{  c #626500",
"}  c #427E23",
"|  c #47772D",
" . c #4A7731",
".. c #707035",
"X. c #3E4E41",
"o. c #2A494D",
"O. c #126B52",
"+. c #3B7B44",
"@. c #326151",
"#. c #4B7D4A",
"$. c #6F6862",
"%. c #288107",
"&. c #36880D",
"*. c #2C851C",
"=. c #288215",
"-. c #32891D",
";. c #3A8B18",
":. c #3F9119",
">. c #008423",
",. c #298325",
"<. c #358B25",
"1. c #338A2C",
"2. c #3B8D2C",
"3. c #388928",
"4. c #3D932B",
"5. c #3B9026",
"6. c #348234",
"7. c #3C8336",
"8. c #3B843A",
"9. c #3C8A3D",
"0. c #378935",
"q. c #3D9133",
"w. c #3E9239",
"e. c #2A8C2A",
"r. c #45971D",
"t. c #478918",
"y. c #448223",
"u. c #4A8929",
"i. c #449422",
"p. c #4D9C29",
"a. c #47962B",
"s. c #529A2C",
"d. c #43893E",
"f. c #468539",
"g. c #548B38",
"h. c #439533",
"j. c #469933",
"k. c #4A9B35",
"l. c #46993C",
"z. c #4C9C3B",
"x. c #46953B",
"c. c #55993A",
"v. c #508D2E",
"b. c #52A12B",
"n. c #4EA23C",
"m. c #5CAB34",
"M. c #52A33E",
"N. c #58A63A",
"B. c #66B33B",
"V. c #61AE3D",
"C. c #398645",
"Z. c #399146",
"A. c #448D42",
"S. c #4B8C44",
"D. c #478546",
"F. c #548D49",
"G. c #469146",
"H. c #4D9B44",
"J. c #45934A",
"K. c #4C954B",
"L. c #4E984E",
"P. c #4B9247",
"I. c #529D44",
"U. c #59924E",
"Y. c #519A4E",
"T. c #579847",
"R. c #528D52",
"E. c #5E9652",
"W. c #539C52",
"Q. c #599A57",
"!. c #498752",
"~. c #639C43",
"^. c #66944E",
"/. c #619955",
"(. c #649D5A",
"). c #6D9754",
"_. c #729B59",
"`. c #638E4B",
"'. c #55A443",
"]. c #58A546",
"[. c #5AAA45",
"{. c #56A64D",
"}. c #5CAB4B",
"|. c #5AA64A",
" X c #5EB148",
".X c #5AA656",
"XX c #4BA648",
"oX c #60AF4C",
"OX c #68A64A",
"+X c #62B14D",
"@X c #6AB546",
"#X c #73BA4C",
"$X c #61AE55",
"%X c #6AA15E",
"&X c #66A859",
"*X c #73AC53",
"=X c #74A55C",
"-X c #65B252",
";X c #69B554",
":X c #6BBA55",
">X c #6CB95A",
",X c #67B558",
"<X c #74B25C",
"1X c #78B559",
"2X c #70AB4F",
"3X c #4C9762",
"4X c #639963",
"5X c #709B70",
"6X c #6E946C",
"7X c #5DB461",
"8X c #5FAA6E",
"9X c #65AC63",
"0X c #68AF66",
"qX c #6DA461",
"wX c #77A966",
"eX c #69B166",
"rX c #7AB661",
"tX c #7DBB66",
"yX c #7AB86B",
"uX c #7FBA73",
"iX c #74C35C",
"pX c #7EC16F",
"aX c #8E8300",
"sX c #82A049",
"dX c #83AD6B",
"fX c #80BE69",
"gX c #85B967",
"hX c #8BB775",
"jX c #92BA79",
"kX c #A0AC6E",
"lX c #83C16C",
"zX c #87C470",
"xX c #89C672",
"cX c #8CC975",
"vX c #90C77D",
"bX c #A1C67B",
"nX c #CEDF68",
"mX c #78B58E",
"MX c #A2BC8D",
"NX c #8BC98A",
"BX c #9AD78A",
"VX c #99D998",
"CX c #92C78D",
"ZX c #B9D695",
"AX c #ABD18B",
"SX c #9CD9A2",
"DX c #A6D6A5",
"FX c #C6D196",
"GX c #C7D6A5",
/* pixels */
"aXnXNXVXBXAXAXZXGXMXMXDXDXSXVXVXBXBXZXbXpXBXAXZXGXZXVXSXCXAXkXFXFXAXDXCXFXFXGX$.",
"b hXrXrX*X1X*X2X1X2XOX1X1X2X1X1X*X1XgX~.2XgX1X1X*X*X*X*X1X~.~.gX1X*X1X*XwXuX1Xq ",
"; } } y.n y.y.b u.b k u.v.u.y.b y.v.} k n y.b ] y.} u.] u.n n b b y.t.[ ! ! a.5 ",
"m g.F.E./.(.U.F.(.E./.U.U.E./.(.E.S.(.%XqX/.F.E.(.E.E.S.E.U.(.F.U.%XU.^.4X!.&XK ",
"2 ~.F.%XyXwXU.F.(.qXhX%X/.qXwXwX%Xf.S.U.U.F.U.%XyXwXU.S./.(.wXE.(.wX=X=XwX+.A.7 ",
"$ @ f W 7.Q r r P T G p P T a : : * = r % = d I _ T s a P P T s I I l l ^ < d + ",
"2 ; T l W f r P P G : s _ 8.I : G _ ' _ = s _ I Y p s T G a : a Y I l ; I ~ S.& ",
"% &.N.a.k.-.-.k.j.j.=.1.h.H.l.1.1.H.k.z.w 3.].z.z.3.*.'.h.h.c 2.z.z.OXu._ A.'.0 ",
"9 c.:X+X;Xz.4.'.[.+X4.I.}.$X}.h.q.|.}.-X2.z.>X;X-Xh.3.,X}.-X2.z.[.oX~.v.f..X+Xq ",
"l S.:X XiXn.4. X'.-X4.z.,X}.{.H.1.l.}.>X2.k.,X-X>Xz.z.+X'.>X<.M.-X}.N.s.P.K.,Xe.",
"p 8.;XN.+Xa.4. XN. Xq ,.l.2.2.h.1.2.j.k.w 4.}.'.[.j.4.}.'.}.w *.5.<.s.a.d.6.4.0 ",
"  6 R t h e t ,.K K @ & y & % y e = & & + 7 R K K D t E K R % 7 t e & & M M 7 & ",
"% 5 7 & & 5 7 t 7 % e K K u & u D D t & % 7 t & % % t u 7 & & u i t % 5 ~ F & % ",
"% t 8.6.R 6.6.6.E 7 K 6.6.6.7 K ) 9.0.E 6.0.6.E Y E 6.8.R 7 R 0.0.6.f W !.C.J & ",
"i K.W.Y.0.d.K.Y.W.E A.W.W..XR 8.W..X9.E K.Y.K.Y.A.K.G.W.Y.Y G.L.K.W.f 7.Q.3XZ.t ",
"R H.}.}.<.h.'.oX;X*.k.+X[.+X=.a.}.[.[.<.[.+X[.M.-.5.M.+X+X=.[.oX}.,X&.N.9X9Xn.0 ",
"K .X-X,X5.h.[.oX+X0 k.;X}.;X-.[.>XoX'.w M.:X:X-X5.j.+X+XM.6 '.oX[.+X%.@X9X7XXX0 ",
"& 3.d.Q d _ 8.(.S.d d.Q.&XQ._ _ Q S.Q % d A.Q E r 7.A.Q.d.Y L.Q.&XY.z | #.#.v @ ",
"@ +   @ + % @ : p % d T T Y % % + + & + @ @ + @ @ @ % p f % a d W T 2 $ + # % + ",
"- a % E i d = % d i @ % % r e Y i & d f = = & f E r @ @ d & = % % 7 j 8 * * 5 @ ",
"; T r S.T _ _ G A.d.Y.d.T 8.6.d.6.r d.8.Q 8.G 7.7.T d.Y W.A.d.7.G 6.n u.D./ 9.5 ",
"j c.=.oXk.n.z.<.}.}.[.h.*.z.k.[.'.*.M.M.M.'.=.+Xk.M.k.w }.[.'.z.-.'.4.[.J.J XXg ",
"9 a.-.+XoX[.j.w n.'.oXz.5.-X[.[.'.c '.[.oXn.w >X[.oXh.c }.[.[.h.<.;X X,XJ.J 7X>.",
"; L.h l.$X{.x.,.'.{.{.l.1.$X.X{.{.h }.{.{.x.,.{.{.'.x.1.{.{.$Xl.1.>Xn.n.Z.J {.>.",
"- v ,.1.{.l.,.g 1.1.{.q.h I.w.w.w.5 h 6 q h ,.,.{.'.,.g ,.1.{.0.h H.a.4.Z.u g & ",
"+ @ : D y : * * y > * S S F > + < * @ > + @ : S L > * , D * y > S D & @ @ : % @ ",
"@ = 6.6.) K F L / ) > F / ) L S F L C.L : S ) ) L S S L F / y / / ) v 8 a / g & ",
"& a.M.k.k.*.*.h.4.k.*.1.'.|.l.2.2.H.].h.c 3.].].h.3.3.z.3.'.w 2.k.k.~.f.R.4XT.h ",
"9 a.>X+X:XM.z.-X].-Xq.q.$X$XI.x.1.I.}.-Xh.'.>X,X>Xz.k.oX].-X2.2.,X}.~.f.R.4X&Xv ",
"P K.#XB.#Xb.p.B.m.@Xp.p.@X@XN.N.i.n.N.#X&.N.#Xm.#Xr.p.@X@X#Xr.i.#X@XOXg.R.Q.yXe.",
"@ 8.B.m.m.r.r.m.m.@X%.&.a.i.:.i.;.:.p.p.0 b.#Xb.@Xp.:.V.p.m.w &.r.;.v.g.D.D.K.g ",
"@ v _ T I G I ' ` ~ # H H H M H ~ H H ,   H ' ~ ~ ~ ( D.( ~ < I H H % w K y 5 @ ",
"+ 9 d P a G _ ' ( , H D.+.` ~ ~ +.` ` ~ ( H ~ ( > I ` ( ` , ~ ` +.` 5 v / / g % ",
"5 2.K.L.A.G.K.A.C.R 9.G.W.K.K 9.K.J.G.6.G.K.K.L.A.G.G.9.K.R A.A.K.A.j &.'.J.3XN ",
"j OX0X9XL.W.&X0X9XK..X0XeXeX9..X9X9X9XG.9XeX9X0XK.Q.9X&X0XC.9X0XyXeXt.s.$X9X8XO.",
"..hXxXfXOXOXrXzXtXT.<XfXtXzXT.rXfXxX<Xc.tXlXtXtXT.2XtXlXtXc.<XfXlXlXc.1XhXNXmXO.",
"..jXlXfX2X2XtXxXrXg.<XzXlXcXOXtXtXzXtXT.lXxXzXxXOXrXtXcXtXc.rXzXfXlXOXgXvXCXmXO.",
"{ sX_._.^._.dXhXdX`.dXjXhXjX).wX_.wX). .).).)._.F.).wXhXdX`.dXCXhXjX).wX6X5X6X@.",
". 2 $ 2 $ $ 3 z U 3 x U U z 2 1 2 2 x $ 2 1 2 1 $ 1 1 U z ; z | z U x x 3 A C X ",
"X o.V V o B V V X.C V C C B C V Z Z C B B C V B V o B C X.B V X.B V 4 . O O B X "
};
