/* XPM */
static char *_7134937ce904c7cd758ed74d818059eZp4sdRMODBcC2gfS[] = {
/* columns rows colors chars-per-pixel */
"64 64 256 2 ",
"   c #003D00",
".  c #043D0C",
"X  c #1E3C17",
"o  c #263A12",
"O  c #13342A",
"+  c #2E3C34",
"@  c #313E37",
"#  c #293A29",
"$  c #004400",
"%  c #014B01",
"&  c #064908",
"*  c #174D01",
"=  c #015302",
"-  c #025B03",
";  c #02540A",
":  c #035B0C",
">  c #0B5809",
",  c #195505",
"<  c #004D14",
"1  c #035C12",
"2  c #0B5B13",
"3  c #02541B",
"4  c #055819",
"5  c #125D14",
"6  c #145C19",
"7  c #1F411F",
"8  c #255709",
"9  c #26421D",
"0  c #2A5B15",
"q  c #315410",
"w  c #026303",
"e  c #03620D",
"r  c #0B620C",
"t  c #086907",
"y  c #166709",
"u  c #067603",
"i  c #177909",
"p  c #026212",
"a  c #0B6313",
"s  c #02631B",
"d  c #0C6B1B",
"f  c #0A6816",
"g  c #126315",
"h  c #15641B",
"j  c #1A651B",
"k  c #146B1D",
"l  c #1C6A1C",
"z  c #176B13",
"x  c #1B741A",
"c  c #187618",
"v  c #0A7318",
"b  c #256809",
"n  c #237606",
"m  c #246919",
"M  c #36671B",
"N  c #25781A",
"B  c #367918",
"V  c #327408",
"C  c #075A24",
"Z  c #135B26",
"A  c #0A522D",
"S  c #2A4622",
"D  c #2B4726",
"F  c #334E2C",
"G  c #35423B",
"H  c #39453E",
"J  c #2E5031",
"K  c #096627",
"L  c #1C6B22",
"P  c #186728",
"I  c #197626",
"U  c #1B7532",
"Y  c #0F7131",
"T  c #236E23",
"R  c #276B28",
"E  c #3B6A23",
"W  c #247324",
"Q  c #237B23",
"!  c #2C742C",
"~  c #2C7B2E",
"^  c #277827",
"/  c #3D7B23",
"(  c #34782C",
")  c #266936",
"_  c #2C7334",
"`  c #2C7D32",
"'  c #277838",
"]  c #337C33",
"[  c #357A39",
"{  c #356435",
"}  c #4A7711",
"|  c #437B28",
" . c #44712A",
".. c #6A6B1F",
"X. c #1C3C49",
"o. c #394841",
"O. c #28444D",
"+. c #146B4E",
"@. c #377942",
"#. c #2C6F47",
"$. c #166652",
"%. c #5F7659",
"&. c #1A8919",
"*. c #298619",
"=. c #37891B",
"-. c #328B0E",
";. c #0D8929",
":. c #248323",
">. c #2B8324",
",. c #2B832A",
"<. c #2B8A28",
"1. c #348C23",
"2. c #33842C",
"3. c #3C8C2C",
"4. c #368928",
"5. c #3B9323",
"6. c #3D922C",
"7. c #3B962C",
"8. c #2A8536",
"9. c #328235",
"0. c #3C8D33",
"q. c #3B853C",
"w. c #388838",
"e. c #3D9334",
"r. c #3B9239",
"t. c #2C9932",
"y. c #44841C",
"u. c #479A1A",
"i. c #498A0C",
"p. c #448323",
"a. c #45822A",
"s. c #4A8827",
"d. c #42952C",
"f. c #489928",
"g. c #54972C",
"h. c #428D34",
"j. c #44873B",
"k. c #568638",
"l. c #439533",
"z. c #459A33",
"x. c #4A9B34",
"c. c #44933B",
"v. c #4B943C",
"b. c #4C9C3B",
"n. c #48983A",
"m. c #569839",
"M. c #518D2B",
"N. c #619335",
"B. c #56A52A",
"V. c #4CA337",
"C. c #52A33C",
"Z. c #59A837",
"A. c #51A531",
"S. c #62A839",
"D. c #67B539",
"F. c #70BF3B",
"G. c #629219",
"H. c #76C63F",
"J. c #3A8942",
"K. c #2E8F47",
"L. c #359759",
"P. c #438D44",
"I. c #498946",
"U. c #558C48",
"Y. c #4B9443",
"T. c #4C9C42",
"R. c #4B934C",
"E. c #479547",
"W. c #539B45",
"Q. c #549C4C",
"!. c #59964B",
"~. c #549B54",
"^. c #5A9754",
"/. c #4F8E57",
"(. c #669849",
"). c #659C5A",
"_. c #659A56",
"`. c #6C914D",
"'. c #4CA344",
"]. c #55A443",
"[. c #5BAB44",
"{. c #54A54A",
"}. c #5BA44C",
"|. c #5DAC4B",
" X c #58A744",
".X c #5FB14A",
"XX c #5BA354",
"oX c #5DAB52",
"OX c #5BA55B",
"+X c #58A358",
"@X c #4BAF51",
"#X c #62AE4C",
"$X c #6DAA4C",
"%X c #67A548",
"&X c #72AC4B",
"*X c #63B34C",
"=X c #6BBB4E",
"-X c #68B646",
";X c #72BB47",
":X c #63AD53",
">X c #67A959",
",X c #75A858",
"<X c #64B253",
"1X c #69B554",
"2X c #6CBA53",
"3X c #6DBA5B",
"4X c #69B55A",
"5X c #71BC54",
"6X c #71BC5C",
"7X c #76B25A",
"8X c #549067",
"9X c #669A64",
"0X c #5AAA66",
"qX c #67A863",
"wX c #75A868",
"eX c #6BB367",
"rX c #7CBB64",
"tX c #72B66B",
"yX c #77B968",
"uX c #7BB573",
"iX c #77AE73",
"pX c #74C259",
"aX c #78C24D",
"sX c #74C168",
"dX c #989C29",
"fX c #83B36B",
"gX c #84B968",
"hX c #88B877",
"jX c #8BB16B",
"kX c #97A568",
"lX c #83C36C",
"zX c #88C76E",
"xX c #8CCB74",
"cX c #89C674",
"vX c #92CC7B",
"bX c #98C87A",
"nX c #95D17D",
"mX c #A6CC7B",
"MX c #CEE472",
"NX c #76B18B",
"BX c #85B78C",
"VX c #A0AF8B",
"CX c #8DCB85",
"ZX c #99CA85",
"AX c #98D385",
"SX c #9CD79A",
"DX c #8FD390",
"FX c #A6CA87",
"GX c #A8DA97",
"HX c #B3D390",
"JX c #9AD9A3",
"KX c #A7D9A6",
"LX c #A6E290",
"PX c #C7D59E",
"IX c #CED8A7",
"UX c #CDE39F",
/* pixels */
"dXdXMXLXDXSXGXGXGXHXHXHXPXPXHXVXFXGXKXKXKXKXKXKXGXSXAXAXGXHXHXbXcXCXLXHXHXPXUXUXHXGXSXJXJXSXGXFXbXHXUXUXPXHXGXJXJXFXPXIXIXIXVX%.",
"G.dXmXAXCXCXAXnXZXFXmXmXFXFXZXhXhXZXZXZXZXCXZXAXAXvXxXxXAXFXbXgXrXcXAXnXmXFXFXFXFXZXCXCXCXCXvXjXjXbXHXHXmXbXZXCXCXbXFXHXPXHX_.{ ",
"M k.fXgX7X7X&X&X,X7X$X%X$X,X$X%XS.$X7X7X&X$X&X,X&X$X$X&X7X7X(.m.m.$X7X7X7X&X$X$X$X$X$X&X,X,X(.m.m.%X7X7X&X$X&X&X&X$X>XwXgX5X=.t ",
", R k.k.M.s.y.y.p.s.p.B p.s.p.B V =.s.M.M.s.y.y.y.y.s.M.g.s.B V B p.s.p.p.y.=.=.y.p.p.p.s.s.B V B =.p.p.p.y.y.i.i.} / q.v.f.i - ",
", b / | / / / / | | / / | a.a.B B B a.a.a.a.a.| / / | a.a.a.| / a.a.a./ / / | | | a.a.| | a./ B B / B / / a.p.} } | ( _ j.v.N r ",
"b } k.U.U.!._._.)._.U.U.!._._._._._.!.!.^.^._.).).).^.U.!._.).>X>X>X_.!.!.^.).)._._.!.U.U.!.!.^._.!.U.U._.)._.(.(.).9X/.^.^.w.k ",
"V p.(.).).wXuXhXhXwX)._.).wXwXuXhXhXwX9XqXwXiXhXhXhXwX^.^.).wXwXwXwX9X).).wXuXhXuXwX).^.^.9XwXwXuXwX).qXwXuXwXwXfXhXiX8X/.^.9.f ",
", M j.I.U.^.wXiXwX^.I.j.I.!._.qXwXqX!.U.!.^.).>X>X^.R.[ ( ] j.I.j.j.j.I.U.^.qXwXqX^.I.j.I.U.!.).qX).!.!.^.)._.(._.wX8X@._ ] z = ",
"$ & > j W ( j.I.j.^ g a z R _ ] ] R L T ! ] ! L L L h 2 : : a 5 2 2 2 j R ! [ j.[ ! T j L R ! ( ] ! R R ! ! R M M ( ) A 4 j >   ",
"* $ $ > g j m T j : = ; 1 5 h 2 ; ; ; h R R h ; % % ; 2 2 5 h 1 % $ ; 2 j j j j h 2 2 5 6 5 2 2 2 1 2 5 h 5 > * & , A 3 P W 5 $ ",
"* * y N ^ N N N z r r z T T m g : : j ! 9.q.! h 2 2 j ! ] ] ] W : - j ! ! W W l g a j W W l g a : : g T W T m b , , Z ) @.P.N - ",
"> y B f.x.3.4.1.N N N 4.l.0.3.>.c c ^ 0.c.Y.c.9.Q Q 2.j.Y.v.v.3.c z 2.n.T.n.h.3.Q N N h.c.3.2.N z c >.0.l.c.m.M.y.B ! [ !. X*.w ",
"- n f.-X-XZ.Z.C.d.=.5.x.C. X Xx.=.1.l.b.].}.}.T.e.4.0.T.]. X[.b.=.*.z.#X<X#X|.].l.*.1.].|.].].x.1.1.z.]. X|.$XS.g.s.j.R.:X[.*.u ",
"y B Z.5X2X*X=X*XC.d.d.C.[.*X<X[.z.l.].|.:X<X:X}.n.0.l.W.|.:X1X|.l.3.C.1XrX3X1X#Xb.5.d.|.1X*X1X|.l.d.].|.<X<X%XS.g.M.j.^.yX1X1.u ",
"m ( Q.6XpX2XpXpX[.d.z.C..X*X1X*Xb.x.{.4X3X4X4XoXT.e.0.b.}.1XpX1Xn.6.].4XsX6X6X1X].l.b.#X1X<X3X1Xz.l.[.1X4X1X#XS.g.m.I.~.eX6XV.&.",
"m _ !.3XpX=XpXpX[.f.x.[.*X*X2X.X7.1.C.<X4X<X|.|.].c.0.c.].<XpX*X7.1.V.2X6X3X3X2X Xx.C.*X*X*X6X*X7.1.V.*X*X|.%XS.S.m.U.R.XX1XV.*.",
"g R Y.1X=X-X*X*XC.5.z.[.*X*X1X].*.i 1.b.'.z.e.n.n.e.4.0.l.C.[.z.*.*.z..X<X.X.X|.V.7.z. X|..X1X X*.i 1.z.z.z.x.g.g.v.P.J.c.z.*.u ",
"% 5 :.b.b.e.e.e.<.c :.l.T.T.'.4.t - t x I c z x Q I x x x N N x - r Q r.Y.r.r.r.<.:.:.e.n.Y.T.0.i w t c c c N N N ^ _ U I c u w ",
"$ = u c k e e f e w f I Q I I g % % - p p ; % = 1 p 1 : : - - %   $ e I I d f d f p p I I I I k - = : p p : - - - : C C 4 : - - ",
"$ = w w - = = - - - - p p e ; = = : f d s : % % 1 s p 1 1 : - % $ % : p p ; = = = ; 1 s s p : ; = ; p s s : = % = : Z C 4 ; = % ",
"% = w f f r > r r a f d f e = = e d I ^ U K : ; p K Y I I k f r r g d d f r - - - a d I d e - - - f I I I d r - r L #.#.Y e - = ",
"= - d ~ w.] ^ Q ~ 9.9.9.` W r : k ~ 9.9.q.` k p d ^ 9.q.q.9.~ ^ ~ 9.9.9.~ ~ W W ^ ~ 9.w.9.I f e k ` w.w.q.9.l y m [ /./.K.I e - ",
": k 9.R.~.R.q.w.q.P.R.R.!.P.~ L ` P.R.R.~.R.` L W q.R.~.~.q.] 9.P.R.R.Y.Y.E.P.J.P.P.P.R.~.P.I L 9.R.R.R.R.R.^ y ^ I.8X8X/.8.v e ",
"I 9.Q.XXXXQ.c.w.r.Y.Q.XX>XXXj.,.c.{.XXXX>XOXr.Q 2.Y.XX>XXXY.9.w.Y.XXXXQ.Q.Q.Y.j.c.Y.Q.XX>XXX9.^ Y.XXXXQ.OXXX2.y 4.!.9XqX0XJ.I e ",
"Q w.{.:X1X|.z.1.6.b. X<X3X1Xl.*.d.|.<X*X<X*X6.*.3. X*X*X*X].6.5.].<X<X#X|. Xl.1.5.x.].<X6X*X1.*.V.<X*X|.3X1Xf.-.f.<XeXeXeX'.&.u ",
",.r.oX2XpX1XV.5.5.V.[.*XpX-X1.i 5.-X=X*X=X*Xf.-.f.=XpX=X=X[.5.-.V.2XpXpXpX*Xf.=.5.V.-X2X5XZ.*.i V.=X*X-X2X=Xu.-.Z.pXtXtXsX@X&.u ",
"I r.:X6X6X1Xb.5.d.C.|.3XpX*X*.u 1.#X6X2X6X1Xx.5.C.2XpX6X1XC.*.i d.<XpXpX6X*Xx.1.d. X1X6X5XC.c i z.3X1X*X3X*Xd.-.Z.6XtXtXeX'.&.u ",
"t Q W.}.Q.P.~ ^ 9.j.!.>XtXQ.Q z 2.XX>XeXtX>Xc.2.j.Y.W.}.Q.h.y - N Y.XXW.Y.j.Q x 2.W.>XqX>XY.N Q Y.>X>XeXeX>Xa.B M.(.9X9X!.3.z - ",
"= > m R R 6 > 5 j m R J.I.] j g ( I.!.^.^.U.( l j j j R ! l & $ > j R m 6 5 ; ; j R ] P.P.] j l ] I.R.~.^.U.E q 0 E { { R g % $ ",
"$ $ $   $ $ $ $ % % % > h a ; = 5 T ! ! ( R 5 = = % $ $ % ; %   $ % % $ $ $ $ $ $ % = 5 j g ; ; 5 j l W ~ ! b , * $ . . & = $   ",
"& % %   % > > % = = % % - : : = % % = = > : ; - - ; % $ % - > = % % % $ $ = 5 5 ; $   $ ; > = % % = = = : e y , = $     % = % $ ",
"2 5 5 ; g ~ ^ h k z : ; 2 L L j 2 > = = ; a f k W W f - r L R k a p p : 1 L ` ! k 2 ; % 5 T l a : : ; = ; p z n y r 2 4 r t - % ",
"5 j T f I P.w.^ ~ ] R j W q.P.q.P.q.! T W ~ ` ] q.q.Q a k 9.P.] ~ ~ ~ L L ] q.] ! ~ ! l ! P.I.w.9.] ! l L ^ ^ B 1.0.[ _ ~ ,.z - ",
"b B 3.N ,.W.T.0.h.n.h.2.0.W.XXXXXX}.c.2.2.c.c.c.W.W.h.N ,.Y.W.n.c.W.n.>.2.n.Y.0.h.T.c.Q 2.}.>X}.W.W.c.2.2.j.3.5.m.}.P.#.K.J.:.t ",
"V y.x.1.7.|.#XC.C.].x.1.6. X*X*X*X].d.=.5.b.C.C.[.*XC.1.1.V.[.]. X#XC.*.5.*X#XC.].[.d.*.=.[.1X|.[. Xz.1.d.].V.A.-X:XK.Y K.@Xt.v ",
"n =.f.5.d.*X1X*X[. Xd.*.=.C.#X*X*X Xz.5.z.[..X X|.*XC.=.=.C.|.*X*X*Xx.*.5.1X2X[.*X[.5.i =.[.*X#X[.C.d.=.z.*X*X-X2X4XK.Y K.@XK.;.",
"b / x.1.1. X4X1X<X X6.N *.b.|.<X<X|.n.6.b.1X4X|.:X<X'.*.>.[.4X4X3X1Xl.N 1.1X3X*X|. X6.*.6.|.1X<X.X X6.1.n.4X3X*X=XoXK.Y K.0X@X;.",
"b ( Y.4.>.n.<X3X1X{.e.:.<.T.oX:X<X|.n.3.b.4X3XoXoX4X'.:.<.{.<X|.oX{.e.:.4.{.<X<XoX{.e.<.e.{.:X<X4X|.l.4.T.3X2XZ.Z.{.K.Y 8.@Xt.;.",
", m 2.<.:.e.|.4X<XT.4.c :.e.b.].oX|.l.>.e.|.:X{.{.oXc.c c <.<.*.:.<.<.<.<.e.{.<X:X'.3.:.:.e.b.{.<XoXe.>.e.oX|.A.V.'.K.Y ;.;.;.t ",
"% > z x c :.r.E.r.,.c t f I I ,.r.r.,.c I w.w.,.~ 2.Q r - w w - - w t c c I r.Q.Y.2.c t v x Q ,.r.r.Q v I r.e.*.*.2.' K p e - = ",
"$ $ % : s K K K d 2 ; = : s s 1 5 K K s s K K 4 & & 4 < $ $ = ; $ $ % ; 1 s Y U P 2 ; ; 1 s 1 1 f K s 1 K K f - > & ; ; ; = $ $ ",
"$ $ % 4 Y Y K C 3 3 < 3 C K K 4 < < C K K K C < & & < 3 4 6 K C < $ < 3 K K K C 3 < < 3 C K C 3 3 3 C K K K a = $   $ 1 p - % % ",
"% = a ~ J.q.` ' P s K I U ' ' U s 4 Y U ' ' ' P K C K U ' J.' P 1 1 K ' J.' ' P s 4 K U U Y U Y s K U ' ' ' ( n y > P _ ~ v w - ",
"- y 1.b.T.n.c.0.>.x Q <.0.0.c.0.Q c ,.c.Q.Q.Y.w.,.~ 8.r.Q.{.Y.,.c v ,.Y.{.Q.c.2.Q I ,.r.0.2.r.0.c c 2.c.c.v.m.M./ ( I./.~.r.x t ",
"w n g.-X*X X XC.d.1.7.V.C.b.].b.3.>.6.].:X:X}.b.l.0.0.T.}.#X|.x.1.1.x.|.1X<X|.].l.3.l.].C.b. XC.*.N 6.].[.].%X(.k.I.^.9XwX>X3.c ",
"y N m.5X5X=X1X1XC.x.C.#X#X|.:X|.z.3.l.|.3X4X|.].b.l.0.b. X#X2X#Xz.d.].1X6X6X6X<XC.l.b.|.#X#X1X#Xd.=.l.*X3X*X%X(.k.I./.9XiXeXc.x ",
"m ( W.5XaX=X=X=XZ.f.Z.-X-X-X=X=XC.d.x.*X5X2X#X[.C.x.d.x.C.-X5X-Xf.f.Z.2X=X=X5X=XA.f.C.*X2X5XpX=Xf.=.f.=XpX5X$X%Xm.I./.9XiXyXQ.,.",
"0 _ !.5XH.F.F.F.B.u.B.D.D.D.;XD.B.u.f.S.-XD.S.Z.B.f.f.f.B.D.;XS.-.-.S.aX;XD.;X;XB.u.B.D.;X;XaXD.u.-.u.D.;XD.-X%X(.U./.^.iXtX'.8.",
"& T I.-XF.D.D.S.u.u.u.B.D.D.D.Z.-.-.=.f.g.f.f.f.f.u.=.=.f.B.S.f.i *.Z.aX;XZ.D.D.B.u.u.Z.S.Z.D.B.-.n -.u.u.u.f.m.m.U.I./.~.XX8.v ",
"% 5 9.m.m.x.l.d.>.B 4.h.n.v.m.3.y w z N N N N x N W W W ^ ^ ^ y = - 2.].W.h.h.v.h.2.4.v.v.h.h.2.r w N N N x m N B ( ' U W Q a : ",
"% > N ( _ R T j h P R _ [ [ ) 6 < < P P P Z C C C P ) P Z Z 4 <   & Z _ _ R P P P ) _ @.@._ R Z < 4 P P P 6 ; - t z K K e - = $ ",
"$ = y l P P 6 4 6 P ) [ [ ) Z < 3 P @.@.) ) Z Z Z ) #.) ) ) Z Z Z Z Z P ) P C 3 Z ) ) _ [ ) C 3 Z ) ) _ #.P ; - t x Y P d w - % ",
"% > z ^ ! ! T L R ] [ [ [ _ f 1 P [ I.I.I.[ R P R [ I.@.@.[ _ _ [ [ _ _ [ _ U P R [ [ _ [ [ P 4 R [ [ J.I.[ z t n 4.w.q.8.U s < ",
"- z 3.Y.R.R.P.J.P.E.E.E.P.q.~ I 9.P.R.~.~.R.` I ` E.R.R.R.P.w.w.P.R.R.E.R.R.P.q.J.P.P.w.P.E.` W q.P.P.R.~.P.N n -.f.W.Q./.L.+.A ",
"u *.W.qXqXOX~.R.R.~.+XOXOX+XP.J.R.+XOXqXeXOXJ.` J.+XOXOXOX+XP.P.~.OXqXOXqXOX~.R.~.+X+X~.OXOXP.w.R.OXOXqXeXOXd.-.i.B.#XOX0X0X+.$.",
"B M.4XtXtXeXXXQ.~.OXeXtXyXeXXX!.OXeXtXyXuXtXQ.P.~.eXtXyXtX>XQ.Q.>XtXtXtXtXeXXXR.~.>XeXeXtXeXQ.Y.OXtXtXtXsXyXm.y.g.$X3XtXNXNXL.+.",
"..`.hXvXxXrX>X}.}.>XyXcXxXrX%XW.>XyXrXsXcXlX%XW.>XrXlXxXcX7XW.Q.yXcXlXsXlXrX>XW.%X7XrXlXcXrXQ.v.>XrXlXcXxXlX%Xg.%XgXcXCXDXNX8X+.",
"%.kXZXAXvXzX7X$X#X7XlXxXxXrX%Xm.$XrXzXzXxXcX7X%X7XzXcXxXxXrX%X%XrXxXxXcXxXzX7X%X$XrXlXxXxXrX Xm.$XlXzXzXzXlX&X%XgXxXAXSXJXNX8X$.",
"..kXbXAXvXcXrX,X,XrXcXnXnXgX%XW.7XxXvXvXnXvXrX,XrXcXcXvXvXgX%X%XgXvXvXxXvXxXrX>XyXgXcXnXAXzX%X(.rXvXvXvXvXxX7X,XgXbXZXSXSXNX8X$.",
"..dXjXhXfXfXwX,X,XfXcXZXZXhX_.(.fXbXZXZXZXZXfXwXfXfXfXhXhX,XU.U.,XfXfXfXfXfX,X(.,XfXhXZXZXhX,X_.fXZXFXZXZXZXfX,XjXhXhXBXBXNX%.#.",
"q ..G.M.k.k.| | k.k.(.,X,X`.k.k.(.,X,X,X,X,X(.k.k.k.k.k.k.k.E M | k.k.k.k.k.|  .| k.(.,X,X`.k.k.(.wXfX,X,X,X`.`.`.`.%.%./.%.#.O.",
"o o 8 * * * * * * 8 0 M E E M 0 M E  .E E M 0 8 8 8 8 8 0 0 , * , 8 8 8 8 8 , * 8 8 0 M  .M 8 8 M  . .E E E M M q q 0 D J { A O ",
"O # S 9 X X X X X 9 S S F F F D S D F F F D S S S 9 9 9 S D S X 9 S S S 9 9 9 9 9 9 9 D F F 9 X S F F D S D 9 9 o o X X D J O O ",
"X.X.O.o.G @ + + + @ @ @ G o.o.G G G G G G @ G G G G G G H o.G @ G G G G G @ G G + + @ G o.o.G + @ H G @ + @ # o o o o # # G # O "
};
