/* XPM */
static char *_9ec1a019a174ce49b4eed84adbb74c3ajyaT8qtJQOQB84h[] = {
/* columns rows colors chars-per-pixel */
"64 64 256 2 ",
"   c #0A1D2B",
".  c #072528",
"X  c #18272A",
"o  c #062836",
"O  c #192B34",
"+  c #183437",
"@  c #00363B",
"#  c #232E35",
"$  c #283537",
"%  c #2D342E",
"&  c #1A241C",
"*  c #31453D",
"=  c #001D43",
"-  c #023849",
";  c #183847",
":  c #002C56",
">  c #013B54",
",  c #013B5B",
"<  c #033656",
"1  c #0E344D",
"2  c #233844",
"3  c #013C64",
"4  c #163C62",
"5  c #02424C",
"6  c #01445C",
"7  c #034A5D",
"8  c #054657",
"9  c #174858",
"0  c #04525D",
"q  c #1C595F",
"w  c #274348",
"e  c #29475A",
"r  c #354A57",
"t  c #325155",
"y  c #024564",
"u  c #024B63",
"i  c #034C6B",
"p  c #0A4A67",
"a  c #144C67",
"s  c #03526C",
"d  c #065769",
"f  c #18576A",
"g  c #034B73",
"h  c #025374",
"j  c #025B75",
"k  c #095977",
"l  c #185B77",
"z  c #174C73",
"x  c #2C4C63",
"c  c #254C66",
"v  c #265667",
"b  c #355768",
"n  c #255975",
"m  c #31526D",
"M  c #076677",
"N  c #1C637C",
"B  c #186578",
"V  c #126B74",
"C  c #28677A",
"Z  c #3A6576",
"A  c #30656C",
"S  c #3F645B",
"D  c #49655D",
"F  c #456768",
"G  c #46697C",
"H  c #516F74",
"J  c #53675F",
"K  c #0E5B82",
"L  c #086786",
"P  c #186988",
"I  c #057597",
"U  c #197796",
"Y  c #11718E",
"T  c #246B89",
"R  c #346A85",
"E  c #28778B",
"W  c #39788A",
"Q  c #2A7796",
"!  c #387A97",
"~  c #2A6B95",
"^  c #167DA3",
"/  c #267CA1",
"(  c #387DA7",
")  c #275E85",
"_  c #496D84",
"`  c #4A7488",
"'  c #557889",
"]  c #447995",
"[  c #557B93",
"{  c #477CA6",
"}  c #617F8C",
"|  c #08859D",
" . c #288399",
".. c #3A8498",
"X. c #338692",
"o. c #1C82A4",
"O. c #1788A8",
"+. c #108CB4",
"@. c #2B85AC",
"#. c #2885A9",
"$. c #348BAB",
"%. c #3C8CAC",
"&. c #3885A7",
"*. c #2A89B4",
"=. c #348CB4",
"-. c #3B8CB3",
";. c #348DBA",
":. c #3B8BB7",
">. c #2A93B7",
",. c #3C93BB",
"<. c #3695B8",
"1. c #3392AB",
"2. c #3FA4BC",
"3. c #45869A",
"4. c #558597",
"5. c #51868E",
"6. c #658997",
"7. c #709090",
"8. c #478AA9",
"9. c #5588A7",
"0. c #4993AB",
"q. c #5898AA",
"w. c #468BB6",
"e. c #558CB6",
"r. c #4494B4",
"t. c #4395BB",
"y. c #439ABD",
"u. c #4C9BBB",
"i. c #4B97B7",
"p. c #539CBC",
"a. c #5597B8",
"s. c #6897AB",
"d. c #689AB6",
"f. c #7297AC",
"g. c #5CA2BC",
"h. c #58A5BA",
"j. c #52A4B4",
"k. c #69A6B9",
"l. c #74A6B9",
"z. c #6CAFB4",
"x. c #5FA19C",
"c. c #139CC5",
"v. c #369CC6",
"b. c #2A98C7",
"n. c #19A8CD",
"m. c #3BA6C9",
"M. c #2AA6D6",
"N. c #3AA8D6",
"B. c #32B2D4",
"V. c #36B4E4",
"C. c #4396C2",
"Z. c #449AC3",
"A. c #4A9DC3",
"S. c #4C9CCA",
"D. c #4899C7",
"F. c #549CC4",
"G. c #589BC6",
"H. c #5098CC",
"J. c #669DC9",
"K. c #4DA2C5",
"L. c #4BABCD",
"P. c #46A5C8",
"I. c #54A3C3",
"U. c #5BA4C3",
"Y. c #53A4CB",
"T. c #5BA4CA",
"R. c #55AACC",
"E. c #5BABCB",
"W. c #58ACC5",
"Q. c #5AB2CC",
"!. c #46AAD4",
"~. c #54A4D2",
"^. c #5CACD3",
"/. c #57A9D5",
"(. c #49B3D8",
"). c #59B6D7",
"_. c #4DB0CF",
"`. c #62ABC5",
"'. c #6CACC3",
"]. c #63ADCB",
"[. c #66A6C9",
"{. c #75AAC6",
"}. c #6BB3CC",
"|. c #67B4CA",
" X c #77B7C8",
".X c #63ABD4",
"XX c #68ABD6",
"oX c #72ACD4",
"OX c #63B3D4",
"+X c #6CB4D3",
"@X c #6DBBD4",
"#X c #65B4DA",
"$X c #6CBBDB",
"%X c #67B8D9",
"&X c #74BBD4",
"*X c #7BBBD4",
"=X c #73BCDB",
"-X c #7BBDDC",
";X c #75B5D6",
":X c #58BAE3",
">X c #4AB8E5",
",X c #6ABBE3",
"<X c #77BCE4",
"1X c #65ABE1",
"2X c #6AC3DC",
"3X c #7CC3D5",
"4X c #7DC4DC",
"5X c #77C5DA",
"6X c #7AC6C4",
"7X c #51C2E6",
"8X c #6AC4E6",
"9X c #7BC2E3",
"0X c #76C5E6",
"qX c #73CCED",
"wX c #6DC3BD",
"eX c #85A8B9",
"rX c #88ADB1",
"tX c #8AA39E",
"yX c #86ACC3",
"uX c #89B7C7",
"iX c #94B7C9",
"pX c #87BBD5",
"aX c #94BCD5",
"sX c #81ACD3",
"dX c #88BEE6",
"fX c #88C4CB",
"gX c #83C3D5",
"hX c #83C3DC",
"jX c #82CADD",
"kX c #8BC7D9",
"lX c #95C8DA",
"zX c #96D1DB",
"xX c #8FCBD0",
"cX c #A5C8D9",
"vX c #ACD3DC",
"bX c #83C4E3",
"nX c #85CBE3",
"mX c #8BCBE4",
"MX c #89C7E7",
"NX c #93CCE4",
"BX c #96CBE7",
"VX c #8BD4E7",
"CX c #93D1EC",
"ZX c #99D5E9",
"AX c #9BD8F3",
"SX c #89D1F3",
"DX c #A6CDE3",
"FX c #A9D5EA",
"GX c #B4D7E7",
"HX c #A5DCF5",
"JX c #A7E3FA",
"KX c #B6E7FA",
"LX c #B6EDF3",
"PX c #C3EBFC",
"IX c #C8F5FE",
"UX c #CFF8FA",
/* pixels */
"' s.pXnX9X&X X XuXiXfXxXxXhX4XgXfXfXfXfXxXfX X X X3X3X3X3X3X3X&X3X4X3X3XgXgX*X*XpXpXaXaXaXpXpXpXpXpXpXuXpXlXaXpXuXuXaXcXaXrX7.7.",
"Z ` q.k.p.0.0.0.q.q.d.k.k.`.g.d.k.l.l.l.l.l.d.d.k.k.k.k.k.k.k.k.k.k.'.'.l.k.d.d.l.l.eXeXl.k.k.l.k.k.l.l.l.l.l.f.s.s.d.d.f.6.H J ",
"8 d N C B k d k k M B T E E T T R _ _ ` _ _ G _ ` ` _ _ _ ` ` _ _ _ ' [ ` G G _ ` ` ' H G R ! ! R R W ` H H G b x c n n n e $ % ",
"5 6 u u 6 6 7 7 u 7 7 u s j j d c x e c x x x m x x e x x x b m x e x x x x x x x e r r e a l n p y a x r r r e ; 1 , 3 < ; # % ",
"p p s i s k l B l k i i h K P P l a u p k l N l l p p s d k C C l p u p k l N l s p c c f k L L j i s f v v n n n z g g g 7 w w ",
") ) T T ~ Q ( &.( Q ~ P ~ / ( &.#.I L L I I o.^ I I I I I I o.#.^ I L I I I o.o.I I P T Y I | +.I I I Y P U Q &.&.^ I I I M f b ",
"] { { { { w.e.a.G.e.w.( { w.e.A.,.>.O.O.O.O.>.>.>.>.O.O.O.O.>.v.<.>.O.O.O.O.>.>.>.>.&.&.o.+.+.b.>.+.+.O.#.#.-.A.Y.v.+.+.+.U C v ",
"{ e.J.a.e.e.a.G.[.G.a.e.e.e.G.G.K.m.<.<.<.>.<.P.P.P.<.>.>.<.Z.P.P.P.<.>.>.>.<.P.L.K.i.8.#.+.c.m.m.c.+.>.r.%.r.I.E.P.b.b.v.1.C q ",
"] e.oX[.a.a.G.[.XX[.G.p.F.F.G.E.R.L.m.m.m.v.m.L._.L.m.<.<.m.P.L.L.P.m.<.<.<.m.L.).R.p.i.>.c.n.B.B.n.c.<.i.y.y.L.R.P.M.M.!.j.X.q ",
"! e.oXoX[.[.[.XX=XoXT.T.T.[.XX#X).(.m.m.m.m.!.(.).(.m.m.m.m.!.(.(.!.m.m.m.!.!.(.(._.R.I.m.n.n.V.V.B.n.m.K.K.L.).).!.M.B.7X).X.q ",
"W 9.oXpX-X;X+X&XbX-X+X}.+X+X-X9X8X).).).).).%X8X2X).).).).).).2X2X).).).).2X).).).%X|.}.).(.(.7X7X7XB._.|.|.%X8X8X).(.>X8X2X3.A ",
"W q.pXNXNXgX X3XVXmX3X3X3X3X4XmXVXnX4X4X4X4X4XjXnXjXjXjX4X3X3X4XnXnXjXjXnXnX4X5XjXkXkXlXkX2X%X2XqXqX2X3XfXfXgXNXCXnX0X0XnX X5.S ",
"3.s.kXZXkX Xh.z.jXzXjXjX3X|.z. XkXzXzXzXfX X XuXkXzXzXzXfX Xz. XkXZXZXzXkX Xz. XzXDXcXcXxX}.g.}.jXVXVXxXfXrXl.iXzXNXhXjXgXs.F * ",
"W 9.z.'.h.3.X.X.j.z.z.z.j... ...j.z.'.z.q.3...8.k.z.'.z.q.3...3.q.z.'.k.q...W 3.k. XeXl.q...Q &.h.|.z.z.s.5.W 4.d.k.g.h.0.Z w X ",
"f n C C f f 7 0 V B C C B M d d B N N f f p u d B N N N B l f f B B N l f 7 7 d B R G Z l j h j L B B f f 9 8 f n f l P k 5 . & ",
"- - - - 5 5 5 5 0 d d 8 0 M M d u 7 8 - - > 8 8 7 u 7 6 u f f f p 6 5 - - - 8 7 7 a e e 9 d j j j u > - - - 9 9 9 < , y 6 - + % ",
"5 7 0 d d d M V V P M d M E X.E R R C f f f n C C C C l C W ] ] W R C n f f C C C Z Z b Z ! ..! Q T N v v v Z Z Z C l l l b w % ",
"B P  .U U Q  .#.$.$. .Y U r.p.i.0.0.0.&.Q Q Q ! 8.8...Q ! 0.a.a.a.q.0.&.Q Q ! &.&.8.] W ( u.K.y.,.<.<.! R W 3.9.9.8.#.U Q 3.A w ",
"Q 8.U.i.( ( -.w.w.-.=.@.=.D.~.H.C.S.Y.t.@.#.#.@.,.,.=.#.@.C.Y.Y.Y.Y.S.,.@./ *.=.=.-.%.( =.!.!.v.b.N.!.-.! ( &.-.t.C.*.+.>.i.W 9 ",
"{ G.=XT.%.( -.w.-.:.,.=.,.D.H.S.D.~./.D.=.*.*.*.;.v.;.*.*.C.S.S.~.~.~.C.*.@.*.;.;.:.w.&.;.N.N.b.b.N.(.t.&.$.$.-.t.v.>.+.v.I.] q ",
"8.[.<XXXw.&.-.:.:.,.C.C.C.S.H.D.Z./.).P.;.;.;.;.;.v.;.;.<.Z.P.D.D././.D.;.*.;.;.;.,.i.w.C.N.N.b.c.B.>XK.-.-.-.-.,.v.b.b.P.W.3.v ",
"8.[.<X,XH.t.C.D.S.S.~.~.~.~.~.S.m.(.:X!.v.v.v.v.v.v.m.m.m.!.!.m.m.(.:X!.v.v.m.v.v.Z.H.G.P.N.N.M.n.V.>X).Z.,.C.D.D.v.M.N.(.R...v ",
"0.[.dX<XT.H.Y././././././..X1X~.!.>X8X(.m.N.!.N.N.N.N.N.!.(.!.N.N.>X8X(.m.N.!.N.N.!././.!.V.V.M.M.V.7X).P.Z.L.~.~.N.N.V.>XL...A ",
"0.[.9X$XT.T.^..X#X#X/.Y.~.#X1X/.L.:XqX).P.P._._._._.L.L._.).).P.L.,XqX).P.L._.).).^..XT.~.>X>XN.N.>X7X).I.K.R.^.^./.!.(.).W.3.A ",
"q.}.nX+Xh.I.E.Q.OX%X^.K.Y.,X,X^.W.=XnXOXu.u.E.].OXOXE.I.E.$X@XE.E.=X0X].u.I.E.Q.OX+X'.d.[.,X:X!._.7X8X}.g.g.`.}.}..XR.L.OX X5.S ",
"q. XVX@Xh.h.W.W.OX$XOXR.^.qXqX#X].4XVX+Xi.p.`.}.&X=X}.g.].nXnX@X}.4XnX|.i.h.`.|.@X*X{.d.oXqX8X_.).8X0X}.k.k.'. X*X*XOXK.%XkXf.F ",
"g.gXJXjX`.|.@X@X5X9X@XI.R.%X%XE.}.CXJX4Xg.`.&XbXmXmX&Xh.U.&X&X|.&XCXAX&Xg.`.&X4XnXmXpXd.[.0X).Y.%XSXSX*X'. X*XhXkXmX@XA.`.gX7.H ",
"d.lXKXZX XgXBXAXZXkXz.3.E E E ..k.AXKXBX X*XNXHXAXNX{.3.! ..! ..'.HXKXmX X*XNXHXHXNX{.4.! ( Q &.;XJXJXkX XgXBXZXZXmX[.8.] ' H D ",
"9.yXFXlX{.{.kXzXfXz.5.q 5 @ @ 9 4.pXZXpX{.{.pXlXuXk.] f 8 1 - a 4.lXFXpXl. XpXlXpXk.] v 4 < : n d.DXBX Xz. XgXjX Xg.! n 4 ; $ % ",
"R [ d.9.] W ] 3.W C 0 - o . . @ n 3.q.4.] W 3.3.W C p - o o o > C 9.s.4.] ] 3.] W l 8 - o = = , R 9.9.W W ......E P g : = o X X ",
"a a z z p , 6 u u u 6 > - 8 6 6 i k l a p , p p p u , , < : > y i l l a p p p y y u 6 > < < < 3 h k p 8 8 8 7 u i i 3 : : 1 + X ",
", , , y 3 , , y i h h h j L U Y k h i y , < , i h h h h k L Y Y k i y < < 3 y y i j j j k L P K K h y , > > 6 i s h h g z n e + ",
"y i h K P K P T T T P P Y #.%.%.Q T P k h k P P T Q P Y Y &.r.%.Q P L j h k P P T U P Y Q &.w.&./ ~ P B M M M L Y U U ~ ! ` b t ",
"L Y #.#.U U @.-.-.$.@./ @.t.F.F.u.r.-.#.U #.@.$.$.%.#.U U r.T.I.i.r.-.#.U / #.$.$.$. .U &.F.[.F.t.w.-.o.I I | O.O.#.@.( 9.9.G S ",
"U $.Y.,.^ ^ *.,.,.;.;.*.;.D.~.H.A.R.Y.<.#.@.=.@.@.,.<.o.o.y.Y.A.A.Y./.y.@.#.@.=.=.<.$.o.*.S./.S.C.S.~.>.| | O.O.>.>.*.:.a.d.` b ",
" .u.%XK.@.#.;.,.;.;.;.;.v.D.H.D.C.R.^.,.#.#.#.o.o.<.Z.=.=.A.K.y.y.R.OXA.#.^ #.=.=.<.=.o.#.S.~.D.C./.^.<.O.O.O.O.>.>.;.C.J.J.4.Z ",
"&.U.=X^.,.=.,.,.,.,.,.,.C.S.S.C.t.R.%XK.=.@.=.@.@.<.A.t.,.A.A.t.y.E.#XY.@.o.@.<.<.t.t.$.=.S.~.D.A.^.$XP.#.#.>.>.>.<.;.C.J.'.4.F ",
"0.`.<XOXA.t.C.Z.Z.D.S.S.S././.S.A.^.,XOXK.y.K.K.y.y.A.y.t.A.K.A.A.^.0X%XA.,.y.K.K.I.I.u.A.T..X~.Y.#X,XL.1.1.2.P.P.v.C.H.J.'.4.F ",
"0.`.<X%XK.A.Y./.Y.~.~.~.~.^.#X/.Y.OX,X%XY.K.R.OXE.I.K.K.K.R.^.^.Y.^.0X$XR.A.K.R.R.R.R.E.E..XXX.X/.#X,XQ.y.2.P.L.L.L.S.~.oX{.6.F ",
"q.[.9X$XT.I.E.^.^.^.E.Y.Y..X.XE.E.OX$XOXI.K.E.OX+XE.I.Y.E.OX$XOXE.#X9X$XE.I.I.E.].E.I.h.E..XXXXXXX<X9XOXW.h.K.L._./.Y.[.;XpX6.F ",
"d. XmX*XU.g.`.].|.}.|.U.`.}.}.].].=X-X}.U.U.U.].&X+XU.U.+X&X&X}.].-XbX+XU.U.U.`.+X}.g.a.[.<X=XoXoXbXbX|.h.h.W.W.OX#X.XJ.sXaX7.F ",
"k.pXBX*Xg.g.'.}.&X*X Xk.}.gXjX*X&XbXMX&X`.U.U.}.9XbX}.U.+XbX4X}.+XbXMX}.a.g.].+X-XhX Xk.oXMXdXXXoXMXMX`.p.g.`.|.$X=X;XoXpXcXf.H ",
"k.kXHXpXk.'.hXnXmXjX Xg.h.|.@X}.&XCXAXbX}.}.}.-XCXCX;Xi.p.+X+X`.&XCXCX;XU.}.-XbXmXCX*Xg.g.;XoXG.oXAXAX&Xg.}.3X4X9X9X;X[.sXiX7.H ",
"{.NXKXNX XpXZXHXAXkXk...E E C E k.AXJXCX-XhXmXCXAXBX[.Q P Q Q &.}.HXJXCX*XhXAXAXCXkX'.! T Q ! { oXHXKXVX}.3XVXAXCX-XG.{ [ ' F t ",
"s. XZXpX'.{.pXgX Xh.X.d 5 - o 5 ] pXNX*X'.*XhXpX Xg...k > - < a 8.gXZXhX X*XkXhX}.q.W 7 : : 3 ) e.mXAXgXk.k.&X4X&Xi.~ z 4 ; + X ",
"R ] q.8.W W W W E V 0 - o o o - N 8.8.! E ..8.! T l s , - o o - l &.8...E ! 3.3.E l 7 - = = : g T ! 8...X.E Q X.Q P g < : - . . ",
", y a p y 6 6 6 6 6 5 - - 8 8 7 s k k 6 > y i u 6 , , 6 6 , < , i h p 6 > , u i i , > > , , 3 g g y , 7 u u u u i i y 3 3 1 + X ",
", , , , , , 6 u p d d s k P E P j h i , < , y i i i i h L P P L k h y , > , 6 u i s d j L P ~ P K i , > 5 6 6 u s h h k l c 2 + ",
"z z l l l l P T E Q E P E ..8...Q ~ T P k k P E ! E T P Q &.0.8.! Q T P N N N P T Q E T Q 8.w.&.( ( E k s j M P U U ~ ~ R Z w + ",
"T ! 8.&.Q Q &.&.&.&.&.Q &.a.U.a.i.a.i.%.Q Q ! 8.0.8.&.Q &.a.U.p.a.i.r.%.&.&. .&.%.8...Q &.G.G.a.a.[.p. .Y U #.$.$.$.&.( { ` t + ",
"! a.XXF.-.&.%.%.-.-.-.$.-.G..XE.I.].].u.$.#.$.%.r.r.-.&.%.p.U.p.p.U.U.r.%.%.%.%.r.i.%...r.G.G.F.G.XX.Xr. .$.1.1.=.,.w.w.e.9.F w ",
"8.[.<X.Xt.w.w.w.t.u.t.r.u.T..XF.F.].@XU.r.%.r.r.%.r.u.r.r.I.I.p.I.+X+Xu.%.r.r.r.i.i.i.0.i.G.G.F.T.XXXXj.1.1.1.1.=.t.A.G.J.l.H t ",
"0.`.4X+XA.u.u.A.F.T.T.F.T..X[.F.I.+X=XE.u.p.I.u.r.u.I.I.I.T.T.W.E.=X=XU.u.u.u.u.u.u.u.I.T.T.T.U.`.+X+XW.u.r.t.y.Z.A.G.J.{.yX5.S ",
"x.z.5X@XW.Y./.^.^..X.X.XXX;X;X.X^.$X0X#XR.E.].E.E.E.E.E..XOXOXOX#X9X9X#XE.E.E.T.E.R.R.).).Q.Q.W.|.@X@XOXW.Y./.^./.^..XoXpXuX7.D ",
"x.wXjX5XQ.#X,X,X,X,X#X.X#X<X<X=X#X0XqX$X^.#X%X%X$X$X%X#X#X$X%X#X$X0XqX0X%XOXOXOXOX).).,X%X%XQ.Q.@X5X5X2XOXOX,X,X,X,X$X;XpXuX7.D ",
"z.6XVX4X@X=X<X9X9X<X=XoX+XdXMXpX=XnXSX9X+X@X&X=X4X9X=X=X=X<X=X@X=XMXSX9X@X=X=X=X5X0X,X,X$X$X|.|.5XjXVX4X@X$X<X<X<X<X<XpXNXlX7.S ",
"z.fXZXmX*X&X-XbXMXMXbX*XpXmXNXbXbXCXAXnX;X;X*XhXbXnXhX*XhXmXmX-XhXCXCX4X;X*XbXmXmXbX9X=X4XhXgX*XgXNXVX3X&X-X<X<X<XbXMXdXDXvX7.D ",
"z.xXJXVX*X;X-XMXCXAXCXMXMXBXBXkXmXAXJXCX*XpXhXmXCXCXmX*XmXAXCXnXCXHXAXhX X*XmXCXCXmXbX4XbXBXNXkXzXZXZXgX*XbXMXMXSXSXBXdXDXGXtXJ ",
"fXvXLXJXkXkXBXHXHXKXHXBXlXBXBXlXNXJXKXHXNXBXAXHXJXHXNXpXkXZXNXNXHXKXKXAXkXNXHXHXHXAXCXhXkXZXzXzXZXLXLXZXkXCXHXJXJXHXCXaXcXvXtXH ",
"xXLXUXPXFXHXKXPXPXPXFXiXyXiXyXiXcXKXIXPXKXKXPXPXPXKXDXuXyXeXl.yXDXIXUXPXGXKXPXIXPXKXDXuXyXuXeXuXvXUXUXLXFXKXPXIXIXKXBXyXeXrXtXH ",
"rXxXGXvXcXcXFXGXDXiXf.} H H H } eXGXGXGXcXcXvXcXcXiXf.6.` G G ' eXDXPXGXcXcXDXGXvXiXf.[ _ G G 5.rXvXPXvXlXcXDXFXFXpXs.[ ' H J D ",
"F 5.6.4.[ [ 4.[ ' G m ; ; ; + ; Z 6.f.6.' ' ' ` G Z m 9 1 1 1 9 Z 6.f.6.` _ ` _ G Z c > - @ @ 5 b 6.7.5.` ` ` ] ] R a 4 ; w % % ",
"+ w r w 2 ; ; 2 2 2 2 # # $ X   O r r w ; 2 2 2 2 2 2 + O O . . + r r w 2 2 2 2 2 2 ; + + + . . + w t w ; ; ; ; ; ; 1 o + # & & ",
"X X # O         X # $ $ $ * % &   O $ X     X X X # $ # # O X   X $ $ O X X O X X # $ $ $ $ X X X % $ X . . . o o o o O + % % & "
};
