/* XPM */
static char *cc042d37d9b245e4d7f2081122916cfbEh1lEWzn3IUAdYm8[] = {
/* columns rows colors chars-per-pixel */
"64 64 256 2 ",
"   c #673800",
".  c #733B19",
"X  c #6B3912",
"o  c #5C393D",
"O  c #533135",
"+  c #713A37",
"@  c #5E3100",
"#  c #386100",
"$  c #7C4601",
"%  c #7A4518",
"&  c #73520A",
"*  c #744828",
"=  c #586600",
"-  c #5C3844",
";  c #693A45",
":  c #594848",
">  c #69444B",
",  c #6D4654",
"<  c #734B56",
"1  c #734349",
"2  c #992B00",
"3  c #873800",
"4  c #983A00",
"5  c #892100",
"6  c #A33D00",
"7  c #AC3D00",
"8  c #A53400",
"9  c #B23B00",
"0  c #8D4300",
"q  c #854A01",
"w  c #944400",
"e  c #9C4200",
"r  c #9C4C00",
"t  c #934B00",
"y  c #8B5801",
"u  c #945301",
"i  c #9B5300",
"p  c #995D02",
"a  c #824B1A",
"s  c #9C5714",
"d  c #934F18",
"f  c #A44400",
"g  c #AC4400",
"h  c #A54C00",
"j  c #AB4C00",
"k  c #B34500",
"l  c #BD4500",
"z  c #B44C00",
"x  c #BB4D00",
"c  c #A45400",
"v  c #AD5300",
"b  c #A35C00",
"n  c #AC5C00",
"m  c #AF5D09",
"M  c #B35300",
"N  c #BB5400",
"B  c #B45C00",
"V  c #BB5C00",
"C  c #AD5A15",
"Z  c #896600",
"A  c #9A6402",
"S  c #977704",
"D  c #A46500",
"F  c #AC6400",
"G  c #AD6A00",
"H  c #A66A04",
"J  c #B46401",
"K  c #BC6300",
"L  c #B36C00",
"P  c #BB6B00",
"I  c #AA7600",
"U  c #B57400",
"Y  c #BB7300",
"T  c #BD7B00",
"R  c #B77B02",
"E  c #AC6D17",
"W  c #844B25",
"Q  c #8D5426",
"!  c #945424",
"~  c #915935",
"^  c #B77B28",
"/  c #AA732E",
"(  c #9D6829",
")  c #C24C01",
"_  c #C24700",
"`  c #C35400",
"'  c #C35C00",
"]  c #CC5D00",
"[  c #C85707",
"{  c #CD5A0B",
"}  c #C36400",
"|  c #CC6400",
" . c #C46B00",
".. c #CC6B00",
"X. c #CA690B",
"o. c #D26401",
"O. c #DA6601",
"+. c #D26C00",
"@. c #DC6B01",
"#. c #D9680A",
"$. c #C47300",
"%. c #CC7300",
"&. c #C57B00",
"*. c #CB7C00",
"=. c #CA740C",
"-. c #D47300",
";. c #DB7401",
":. c #D47B00",
">. c #DB7C01",
",. c #D8770C",
"<. c #C86716",
"1. c #D6691B",
"2. c #CB7517",
"3. c #D97717",
"4. c #E37301",
"5. c #E37C01",
"6. c #E97905",
"7. c #F37C07",
"8. c #E47C12",
"9. c #E97C19",
"0. c #E9710C",
"q. c #DB7725",
"w. c #D1712B",
"e. c #E37A25",
"r. c #F17933",
"t. c #C17A40",
"y. c #BC8800",
"u. c #B48B0A",
"i. c #B48429",
"p. c #C48301",
"a. c #CC8200",
"s. c #CA8804",
"d. c #D38301",
"f. c #DC8300",
"g. c #D48B00",
"h. c #DC8B00",
"j. c #D7860B",
"k. c #CB9301",
"l. c #DC9300",
"z. c #D79700",
"x. c #D88A17",
"c. c #CD8D19",
"v. c #E38400",
"b. c #EB8400",
"n. c #E48C00",
"m. c #EB8C01",
"M. c #E7870B",
"N. c #F48300",
"B. c #F28B00",
"V. c #F88908",
"C. c #E59300",
"Z. c #EB9201",
"A. c #ED9B02",
"S. c #E79807",
"D. c #F39400",
"F. c #FD9301",
"G. c #F49C00",
"H. c #FC9B00",
"J. c #F9970D",
"K. c #E48513",
"L. c #E4851B",
"P. c #E48B1C",
"I. c #EA8917",
"U. c #F38C1C",
"Y. c #F68817",
"T. c #EB941A",
"R. c #FD9C13",
"E. c #F49B1D",
"W. c #FC9C1C",
"Q. c #F59516",
"!. c #E8A303",
"~. c #F3A400",
"^. c #FEA401",
"/. c #FFAB00",
"(. c #FCA90A",
"). c #FFB301",
"_. c #FEBA00",
"`. c #FEB80D",
"'. c #FEA314",
"]. c #FEAC16",
"[. c #FDA21C",
"{. c #FFAD1B",
"}. c #F5A518",
"|. c #FEB61A",
" X c #ECA41A",
".X c #D88625",
"XX c #DB9227",
"oX c #D28D30",
"OX c #E78827",
"+X c #F78927",
"@X c #ED9124",
"#X c #E79528",
"$X c #FD9C23",
"%X c #F5932C",
"&X c #FC9B2B",
"*X c #F79627",
"=X c #E78634",
"-X c #F88735",
";X c #E99536",
":X c #F39534",
">X c #FE9B34",
",X c #FE9D3B",
"<X c #F89836",
"1X c #EBA626",
"2X c #F5A224",
"3X c #FCA424",
"4X c #FFAA24",
"5X c #FEA42B",
"6X c #FEAC2C",
"7X c #F4A42A",
"8X c #FFB324",
"9X c #FFB32C",
"0X c #FFBA2C",
"qX c #FEB925",
"wX c #FEA433",
"eX c #FEAB33",
"rX c #FFA43C",
"tX c #FFAB3A",
"yX c #F5A436",
"uX c #FFB333",
"iX c #FFBC33",
"pX c #FFB33C",
"aX c #FFBA3B",
"sX c #ECA939",
"dX c #D6B41C",
"fX c #FFC52B",
"gX c #FFC629",
"hX c #FFC333",
"jX c #FFC43D",
"kX c #FFCA36",
"lX c #FFC51C",
"zX c #B48649",
"xX c #D39144",
"cX c #F88544",
"vX c #F99748",
"bX c #FD9A55",
"nX c #E88B47",
"mX c #FFA543",
"MX c #FFAC42",
"NX c #FEA84A",
"BX c #FFB443",
"VX c #FFBA43",
"CX c #FFB44B",
"ZX c #FFBB4C",
"AX c #FFA756",
"SX c #FFB956",
"DX c #FFBA64",
"FX c #FFAC6F",
"GX c #E49C5C",
"HX c #FFC746",
"JX c #FFC45B",
"KX c #FFC456",
"LX c #FFD551",
"PX c #FFC565",
"IX c #FFCE73",
"UX c #FFE05C",
/* pixels */
"o.U.KXUXLXLXHXjXHXHXHXjXhXhXhXhXfXfXfXfXfXfXfXgXfXfXfXfXgXgXfXfXgXgXfXfX|.qXfXkXgX|.0XjXjXfX0XkXkXlX_.`.gXkXkXkXhXhXjXLXUXLXdXu.",
"N 3.SXJXKXZXVXaXaXaXaXaXuXuXuXiX9X0X9X0X9X9X0X8X9X9X9XuX9X8X9X9X9X9X9X0X8X8X0X0X|.{.6XpXuX9X9X9X0X8X].].8XqX0X0X8X9XuXZXKXCXc.I ",
"e C oXxXoXoXXXOXOXOXOX@XOXc.c.XXP.P.K.P.P.P.K.L.P.P.P.OXOXP.L.P.L.P.P.P.P.OXP.K.K.K.L.L.OXx.x.x.x.P.P.K.M.f.j.g.d.f.Y.+X-Xq.m t ",
"3 w i u u u c v z j v M c i u i h j j M M M v j j j j j M M M M M v v v v v v v v j j g j c i c v M M M j h h i i j x _ _ x e 3 ",
"4 h J L G L $.%.....-.+. .P L Y  . .%.-.:.%.%. . . . . .%.%.%.%.%.%. . . . . ...%....... .P U Y  .%.%.%.....P L P $.+.O.#...n u ",
"z  .#XsXsX1X3X4X3X[.3X[.W. X1X2X3X3X3X4X4X2X2X2X2X2X7X5X5X7X2X2X2X2X2XE.E.E.[.[.3X3X5X5X7X1X1X1X2X2X3X3X4X4X}.!.!.}.5X>X,X@XT D ",
"j } #X1X Xl.C.Z.m.b.m.m.m.l.l.C.C.n.n.n.h.f.f.n.C.n.n.n.C.n.h.f.h.n.C.C.n.C.C.n.n.n.m.m.C.l.l.l.Z.m.n.n.n.n.l.l.l.n.B.V.V.f.G u ",
"4 j  .$.L F B V N N N ' } J L P  .K B B B v B K } K K K K K B v B K K K K J K B B M M V B F L P K V M M M v n D F V ' ] | V i $ ",
"2 7 V K J v z ` ` x x ] ..J J P  .K K  .} K K  ... .} K K K M v B K } V M v B B v v M N B n F J B M M V V V B F n B ` ` ] <.C y ",
"9 ) q.q.3.-.;.6.7.4.4.Y.U.f.:.d.>.:.f.@X@XP.OXOXOXq.3.3.3.3.2.%.,..X.X,... .%.:.:.-.3.e.3.&.Y $.%.+.;.I.+XU.P.j.*.-.@.0.r.nXt./ ",
") e.AXAX<X<X>XrXtX$XJ.wXCXyX#X#X%X@XwXCXCXtXrXmX,X:X:X:X:X<X@XI.%XmXmX<X@X@X%XwXwX&X>XmXNX;XXX;X:X:X,XCXSXZXBXpX7X*X%XvXbXAXxX/ ",
"] 9.CXZXVXaXiXiX0XH.F.'.aXiX9X9X9X9XuXHXjX8X9XuX9X6XeXeXpX6XG.Z.G.4XaXpX9XuXiXiX8XG.D.4XVXaXaXaXpXpXaXHXiX8X8XqX|.{.eXCXDXSX.XI ",
"x +.'.|.`.).)./.F.;.| b.^.)._._._.)././.G.f.n.A.G.^.).)./.G.f. .%.n./.).).).)./.n.$. .n./.).`.|.`./.^.^.Z.>.g.z.!.~./.8X9XE.T y ",
"8 z -.n.l.C.n.b.o.g 8 N :.l.z.A.A.n.:.%.B h v K %.:.n.n.n.%.M e f K d.n.C.Z.n.:.B e f } f.l.l.A.C.v.>.-.K j c L T :.b.b.5...i $ ",
"2 8 j c b n V ' N g 7 k M c i n B B v j f 4 e j j M M V V v f f j M V V V V V B v h g z v c i n V N z z j 6 e t c M ` ` ` j 0 $ ",
"8 g h w t c B | o.o.| ] M 0 3 4 h M M M V V V V N g f j M M ' ....} V M j M V } ..+.| N j w 3 w j z z x ` ' V n v j 7 l ` M s d ",
"[ <.w.E E 2..XOXL.K.5.>.=.J b n  .-.-.%.-.,.,.,.,.} N ' X.3.3.3.,.-.-.+.3.3.3.L.K.M.,.3.X.K n B ..o.| o.;.6.,.*.*.} x ` 1.w./ ( ",
"] q.vX;XXX#X7X$Xm.v.v.M.P.c.p.p.v.m.v.>.f.v.v.v.v.>.-.>.v.v.>.>.>.f.v.m.Q.*X&XE.Z.v.v.I.I.h.a.d.m.M.5.5.5.b.n.C.C.>.| O.OX;Xi.A ",
"..@XSXpXz.!.{.{.G.D.G.R.6X1Xk.s.Z.H.D.Z.m.Z.Z.D.D.n.f.v.Z.Z.m.n.Z.D.G.G.G.^.{.{.^.G.H.'.[.A.g.l.G.'.D.B.B.B.Z.!.~.m.;.6.$XMXc.S ",
"%.#XSX1Xk.z.(.0X8X8XuXaXVXsXy.p.G.(./.^.(.].{.4X'.Z.>.:.Z.{.8X{.{.8X^.Z.n.D.(.0XiX0XiXaX9XA.s.g.G.4X].^.^././.)./.Z.;.5.3XCXXXu.",
"V =.OX&.D L h.W.tXpXBXBXeXj.D n n.[.[.5XeXeXtXtX&Xf.} V :.&XwX5X5X$Xv...V } v.3XpXBXBXBX$Xa.D J f.W.&X5X5X5X6X4XA.:.' ] I.vXoXE ",
"4 f v r 0 w M ;.Y.I.9.8.-.n 3 w ..>.>.>.K.L.L.OX3...z g N ....| +.+.V f 2 6 ' >.L.OXL.8...n 0 e } 4.8.8.6.8.L.x.:.} k l ` <.s $ ",
"5 4 h h r w f N o.] x x z e w h V | V V V N ' ..| ' N N N j g g M V N j f z ' -.-.} N z z h w h ' o.| ] ` ` } %.$.} ` ) x f   @ ",
"2 g } $.Y J V | @.o.) x z v J  .....} ' V M ' ..+.....+...' N N } ..+.+.+.-.>.>.>...N x V J F K ..+.| ] N x } %.$.%.;.#.| M q   ",
"k ' K.n.d.*.>.6.N.N.6.@.o...:.>.>.-.-.;.-.-.>.K.K.>.;.;.,.L.L.8.>.>.v.v.v.v.v.v.v.M.>.-.%.$.&.%.:.;.@.;.@.+.>.f.:.:.5.9.e.2.A & ",
"o.9.rXE.h.f.b.V.F.$XW.V.6.>.>.v.v.>.v.m.M.I.*X<X%XL.8.>.L.%X<X:X%X@XI.M.v.>.>.v.Q.wX>XI.:.*.a.:.>.5.5.V.N.N.Q.T.h.>.5.Y.-X=XE Z ",
",.<XSXpXC.C.D.F.H.'.3X$XW.T.I.I.I.Q.E.5X*XI.*XrXrX%X@XU.@X%X&X*X*X&X>X*XT.M.M.Q.$XeXtX&XP.x.x.P.@X%X>XrX$XF.W.6X XZ.Y.+XvXvX^ Z ",
"] OXJXKX9X].|.].H.F.H.9XVXpXeXeXeXtXZXKX5Xf.n.4XuX6X[.[.4X4X'.Z.Z.'.pXBXeX4XeXeXR.R.3XeXtXpXpXtXtXCXJXKX3Xb.Z.9XuX4X$X&XNXAXi.Z ",
"6 ..$X8X].~.(.H.b.o.+.B.8X|.|.8X4X9XuX9Xn.V  .Z.^.^.G.A.~.~.C.*.:.Z.].8X{.[.4XR.v.+.-.Y.4X9XiXuX6XuXaXuXv.V K l.(.{.R.Q.&X:XR y ",
"2 g } *.&.&.%...` 7 7 ` -.d.g.h.m.m.b.:.M 4 h  .:.f.:.%.%.*. .B K -.v.f.-.+.+...N f 6 N -.d.h.n.v.v.v.>.N 4 4 F a.n.b.4.@...p q ",
"8 6 h c i r j z k 7 8 8 k n n B } | ' N g 4 f j M K B h j B v h v V ' N z k g g g 6 8 g M n F K } ' ' ' z 6 4 r c B ) l 7 4 0 $ ",
"k N X.B c h M ` ] ] ` l z B v j N [ [ ` ` ' ' N M N j f j <.V M N ' ' N x x x N ' ` ` ' N v v V } ] ' ' ] ] V n v g 7 9 9 6 0 $ ",
"[ w.nX=X=. ...;.4.4.@.O.o.2.2.<.<.1.1.1.q.e.q.1.X.} V V <.e.q.2.2.2.q.q.1.1.1.q.e.,.@.;.-. .P =.3.,.o.| +.;.:.*.$.V ` #.q.<.s q ",
"N q.NX:Xd.*.v.B.b.6.6.6.5.x..Xj.>.5.;.;.>.>.>.f.f.-. .-.n.Z.m.f.f.f.v.v.>.;.;.5.5.5.5.b.n.d.*.d.v.5.-.+.;.5.>.d.h.>.O.7.>X=XH y ",
"N OXSX7Xa.*.m.F.B.b.N.F.J.S.h.n.D.H.Z.n.f.f.n.G.G.h.*.C.~.^.~.G.Z.A.G.A.v.>.v.n.n.v.B.H.G.l.g.h.Z.B.b.v.B.D.h.l.~.Z.5.V.tXyXR y ",
"] @XJXuXg.*.Z.H.F.B.F.4X6XS.a.h./._.).)./.^./._._.A.h.A.)._._._./.).).^.C.v.D.^.^.H.^.(.^.C.g.Z./.{.].^.^.^.G./.|.G.5.F.ZXCXs.Z ",
"] L.NXyXa.$.v.F.F.F.$XtXwXd.n K V.6XpXpXuX6X6XpXeXn.%.d.Q.4XuX4X[.2X3XZ.>.;.m.R.'.R.'.[.Z.*.Y :.G.6XpX9X{.].{.qX(.f.| 6.rXNX2.y ",
"k ' ,.%.J J ..4.7.9.+X+X8.B 3 4 ' e.=X=X=Xe.e.e.q.' j v } 2.2.2.2.q.q.X.N N #.e.e.8.M.b...c w h ..5.Y.U.V.M.T.S.*.M 7 l O.3.D $ ",
"2 6 j B n n V ] O.` l ) N h w 4 k ) x k g g z z N N j j j j 6 6 z <.<.[ z x [ [ ` x x N M e 0 e j x N N z z B F c M ) _ x M u $ ",
"8 g V P P  .} | o.x 8 9 x B J B N N z g g g z N } ..=.} V j e f V %.3.+.| o.o.| N g g N ' B n B N x z z g 6 f c n ..4.@.] V i $ ",
"z X.OXj.*.*.>.5.6.@.] O.,.%.$. ...| +.;.>.>.f.>.:.f.f.:.%.$.K K :.n.n.f.>.>.>.5.>.-.o.;.;.$.P  ...| o.8.8.;.%.*.*.>.M.9.e.q.b $ ",
"#.OXvX#Xa.d.v.V.&XY.N.Y.%X.X=.%.:.>.v.D.'.4X4XJ.n.f.f.d.f.f.d.f.Z.E.Z.f.:.>.5.D.^.H.B.Y.I.:.*.:.5.;.5.&XMXtXeX1Xh.>.4.r.-X=XE q ",
"3.-XNX:Xh.h.Z.R.5XW.J.$X>X;XXXP.Z.D.H.'.6X6X6X3XJ.Z.C.n.Z.Q.Z.n.A.3XW.Z.v.v.m.^.8X[.V.*X&X#X#XT.U.M.Q.tXVXaXaXuXS.v.V.-XvXnXE q ",
"' OXBXaX8X8X]./.^.F.N.F.6XpXBXpXuXuXaXVXeX$XW.3XeXBXMXrXMXMXE.f.f.E.tXBXaXpXeXuX4Xm.5.R.aXVXpXeX6X5X6XaX8X^.^.(.~.(.6XMXMXOXb   ",
"4 } ].`._._.).^.B.| ' 5.^.`.|.|.{.6XeX5XI.-.%.>.@XwXtXtXrX:X=.B V :.$XpXZXVXeXQ.5.} ' v.{.qX|.).).(.'.^.b...$.g.l.H.].4XR.:.q   ",
"5 f %.g.g.l.h.>.' g 8 x -.d.a.d.v.5.-.} M j j M K  .%.>.:.K f 4 f V -.v.v.v.;.| N f f N %.*.a.h.m.5.-...M 6 e b J %.5.6.;.V q   ",
"2 6 v n n v M N ` k 7 k N c t h V ' z g f f j v v h h M B j f h v V K N M z N ' N z g k j r r v V N g g g 6 f i c v x ) ` M t $ ",
"k x V B c h z ] 4.4.O.] N f 4 e N ' N V V } } .. .M h j V K }  .%.%.} N z N ..-.;.o.| ] ' h w e z x x ` ] | } J J M l ) [ <.s q ",
"{ 1.=X.X$.$.3.+X*XY.7.6.,.X.J K ..-.-.-.-.-.>.v.K.%.V K %.>.f.:.:.>.:.-.-.5.V.D.b.5.6.9.e.2.J V ..,.,.8.8.6.>.*.*...] #.r.w.C q ",
"1.=XbX:XP.T.5XwX&XY.7.N.U.OXj.f.m.m.v.v.v.v.m.T.T.>.%.:.M.M.f.f.f.v.m.Z.D.J.4X{.D.b.M.U.U.j.d.f.U.*Xb.5.b.b.n.S.l.>.O.0.vXbXw.A ",
"#.=XNXyXT.2X9XuX4XF.F.W.wX7Xh.n.H.^.H.D.D.H.R.3X$Xv.%.v.E.E.Q.Q.Q.E.[.H.D.H.{.0X{.'.$X$XR.C.l.Z.3X5XJ.B.B.F.G.}.}.m.@.7.mXSXxX^ ",
"o.OXSXyXh.A.{.9XuXpXaXZXZXwXd.:.H.|.|.8X9X6X6XpXpXZ.%.:.Q.pXVXBXpXpX4XH.m.B.^.iXjXHXZXZXuXA.g.f.W.pXpX6X4X4X4X9X0XD.@.4.*XNXxXi.",
"` 3.;Xx.P $.f.E.eXBXZXCXyXc.F F f.(.6XeXeX5X6XtXeXh.P K d.7XtX7X2X$Xn.%.K  .n.3XuXVXZXpX*Xd.J K f.E.eX6X6X9X6X9X Xh.| ] -.2.E Z ",
"7 x ' M r c J T p.c.c.y.U A q u G a.s.a.p.a.x.XXx.Y b b G Y Y L Y Y F i 0 i L a.a.s.a.p.L b r c L p.p.y.y.y.k.z.p.U n v b Z = # ",
"8 k N M v n F G G H D A p y A A G T T U D D U p.p.T G D D D D p D G D p p A G U U D p A D b n F U R I S Z Z I y.R U L J G Z = # ",
"l ] e.3.%.%.*.*.&.T U G G U T p.a.j.j.&.J J $.j.x.j.a.&.&.&.&.&.&.*.a.a.a.&.&.a.a.Y D G $.*.:.:.d.j.p.R A A U a.d.d.f.>.x.i.S = ",
"@.Y.mX&Xb.v.v.m.Z.S.C.h.d.d.h.h.v.K.P.P.>.>.K.@XI.K.I.I.I.I.U.@X@X@X@X@XU.M.v.I.%X:X=X.XOXOXOX=X=X=X=X.X.X.X=X:X:X+X+X-XvXGXzXi.",
"7.&XCXwXF.B.D.F.[.6X6X'.D.m.n.m.Y.+X%X>X>X*X,XrX*XU.*X>X>X>X,X,X>X>X>X>X%X+XU.*XmXSXFXbXcX-XcXcXcXcXcXvXvXbXAXAXbXcXr.cXbXFXGXzX",
"9.,XDXCX5X3X5X6XuXaXaXpX6X3X'.$XwXmXNXSXCXrXCXCXmXrXrXrXMXNXMXrXrXmXNXNXmX,X>XrXCXSXDXDXAXbXbXbXbXbXAXDXAXNXAXSXAXvXvXbXFXFXGXzX",
"9.vXIXIXPXSXJXZXCXBXBXCXSXJXJXJXKXJXPXPXVX3XeXZXKXJXKXBXBXZXBXeXeXZXJXJXJXKXZXZXBXaXVXZXJXPXPXDXPXIXIXIXVX X2XVXZXCXCXSXIXPXGXi.",
"o.%XPXPXSXCXpX7X#Xx.x.T.wXZXJXJXjXhXhXqXA.*.d.A.8XiXqX~.~.].A.h.C.].0XhXiX0X8X}.C.a.a.C.8XjXjXhXiXjXHX0Xz.T a.~.).|.8X8XuX6Xk.I ",
"M X.=XXX,.*.$.n r w r n $.*.j.d.h.h.g.a.J r r J $.d.d.$.$.$.J c J $.d.*.*.$.$.J c 0 q b &.f.h.f.:.f.d.&.D q i P f.m.b.5.>.*.D y ",
". W ~ ~ Q W % X X X . a Q Q Q Q Q Q Q Q a . . . % a Q Q Q Q W * W Q Q Q a % % % . X X % % ! ! ! d d d a % * % $ u s s s d ! * * ",
"O - - > > > o o o o > , , , ; ; > > > > > ; - - o ; , < < < , , , < < > - - - ; - - : : : > 1 1 1 ; + o > > o O + + + + ; < < , "
};
