/* XPM */
static char *e8d09892f9784bd7bbe010ff3fbfc89aKz6biiGFxalVuiRJ[] = {
/* columns rows colors chars-per-pixel */
"64 64 214 2 ",
"   c #1C320D",
".  c #292C0C",
"X  c #362D0D",
"o  c #26320D",
"O  c #2C330D",
"+  c #31350E",
"@  c #38330A",
"#  c #2B2D13",
"$  c #372B1C",
"%  c #2E3612",
"&  c #2D3A14",
"*  c #2D3D19",
"=  c #283716",
"-  c #323612",
";  c #3C3515",
":  c #343A15",
">  c #393C16",
",  c #33341C",
"<  c #3C341A",
"1  c #353D1A",
"2  c #3A3D1A",
"3  c #3B2C20",
"4  c #363521",
"5  c #3C3523",
"6  c #373A21",
"7  c #3B3B24",
"8  c #3E3C29",
"9  c #3E362B",
"0  c #4C2903",
"q  c #502803",
"w  c #493B0E",
"e  c #463608",
"r  c #412E1D",
"t  c #453816",
"y  c #433B1C",
"u  c #4B3C1C",
"i  c #483613",
"p  c #543311",
"a  c #453B24",
"s  c #423E2A",
"d  c #453926",
"f  c #523E2C",
"g  c #4B3F31",
"h  c #2E401A",
"j  c #36411A",
"k  c #3B421D",
"l  c #364520",
"z  c #3D4422",
"x  c #3E4A23",
"c  c #3E4129",
"v  c #394D2B",
"b  c #38502C",
"n  c #2A4E37",
"m  c #3F4C3C",
"M  c #2D523C",
"N  c #34563B",
"B  c #2A4A2C",
"V  c #41441F",
"C  c #4B4218",
"Z  c #424622",
"A  c #4B4424",
"S  c #434A25",
"D  c #42422C",
"F  c #4E462A",
"G  c #454C2A",
"H  c #4A4E2B",
"J  c #4B4B26",
"K  c #524323",
"L  c #544B2D",
"P  c #5A4C2E",
"I  c #564B27",
"U  c #46512B",
"Y  c #4B522D",
"T  c #485026",
"R  c #5E542C",
"E  c #464B31",
"W  c #4A4E33",
"Q  c #444D3B",
"!  c #544F31",
"~  c #5C4F34",
"^  c #5B4938",
"/  c #445432",
"(  c #4D5332",
")  c #4E5A33",
"_  c #4E543A",
"`  c #465B39",
"'  c #525532",
"]  c #5A5234",
"[  c #545B35",
"{  c #51563B",
"}  c #5E5539",
"|  c #565C3B",
" . c #595E3C",
".. c #5B5935",
"X. c #614C2B",
"o. c #635234",
"O. c #63553A",
"+. c #625D3D",
"@. c #6B5E3E",
"#. c #576037",
"$. c #56613B",
"%. c #5B633D",
"&. c #63623F",
"*. c #6A6237",
"=. c #395741",
"-. c #4D5B4B",
";. c #455946",
":. c #565B41",
">. c #5A5E43",
",. c #655F41",
"<. c #715B42",
"1. c #446548",
"2. c #4B6548",
"3. c #5D6442",
"4. c #5E6843",
"5. c #54644D",
"6. c #5E634A",
"7. c #56684A",
"8. c #5B724E",
"9. c #4A6356",
"0. c #446551",
"q. c #526551",
"w. c #526B54",
"e. c #5A6A53",
"r. c #5F6151",
"t. c #5C7354",
"y. c #5B745A",
"u. c #626543",
"i. c #6A6446",
"p. c #636A45",
"a. c #6A6947",
"s. c #62654B",
"d. c #656B4A",
"f. c #6A6D4B",
"g. c #6B6548",
"h. c #746543",
"j. c #736B4C",
"k. c #73614D",
"l. c #677047",
"z. c #687147",
"x. c #65714C",
"c. c #6B734D",
"v. c #6F784F",
"b. c #72714E",
"n. c #7B764C",
"m. c #656552",
"M. c #656A51",
"N. c #696C51",
"B. c #6D6E5A",
"V. c #696751",
"C. c #726D51",
"Z. c #766B55",
"A. c #637353",
"S. c #6D7452",
"D. c #6E7851",
"F. c #6E755A",
"G. c #63795D",
"H. c #6D7B59",
"J. c #727654",
"K. c #7B7553",
"L. c #737A55",
"P. c #7C7957",
"I. c #717659",
"U. c #757B5A",
"Y. c #7A7D5C",
"T. c #6A7D62",
"R. c #767C61",
"E. c #797E62",
"W. c #7C7D73",
"Q. c #806C52",
"!. c #85795A",
"~. c #837F62",
"^. c #77805B",
"/. c #7B825E",
"(. c #778057",
"). c #6E8067",
"_. c #748262",
"`. c #7D8362",
"'. c #7C8B65",
"]. c #7D8369",
"[. c #7D8B69",
"{. c #758767",
"}. c #7E916B",
"|. c #7C8D78",
" X c #828564",
".X c #8B8467",
"XX c #828A65",
"oX c #82866A",
"OX c #848A6B",
"+X c #898C6E",
"@X c #95876C",
"#X c #948B6E",
"$X c #83926C",
"%X c #89916D",
"&X c #898677",
"*X c #868A71",
"=X c #8A8D72",
"-X c #858479",
";X c #8B8B7B",
":X c #848771",
">X c #978F72",
",X c #8D9275",
"<X c #8D9579",
"1X c #8B9675",
"2X c #919376",
"3X c #92967A",
"4X c #95997D",
"5X c #688681",
"6X c #8B8B83",
"7X c #969C81",
"8X c #9A9E82",
"9X c #9CA286",
"0X c #9BA286",
"qX c #A3A88B",
/* pixels */
"5X5X|.:X+X=X+X X XOX=X=X=X=X&X&X-X6X6XW.W.&X;X;X*XoXoX%X%X$X}.'.'.[.}.'.'.}.}.'.`.`.].=X=X=X*X:X*X&X&X&X;X;XOXXX$X$X'.XXXXY.u.! ",
"r.m.s.s.d.f.f.p.p.f.S.N.f.N.N.N.m.B.F.M.m.B.I.S.N.d.c.c.c.x.x.c.x.c.x.d.d.x.x.d.d.d.d.f.S.S.f.d.f.N.N.N.V.N.d.4.x.x.p.u.u.u.] A ",
"p p p t 2 k k k k S H z k k Z k k Z Z Z A S S Z k Z S Z V Z S G Z A Z k k z k V Z Z k k V Z k k k Z Z k 2 2 2 j z z j : > ; < ; ",
"q 0 0 @ - : : + + 2 k : : > > - + + - : > > : + + : 2 : - : 2 > - - - + - : - + - - - + : > - O O + - + + + % & * 1 : - - - ; X ",
"u u K A Z S S k 2 Z H S S H H Z k k Z Z S S Z k k S H S Z S S Z k k Z Z G H S k j z Z S H H S k k k Z Z S S S z x G S Z Z Z y ; ",
"m _ :. . .%.| ' H '  . . .3.%.[ Y ' |  .%. .[ ( ( [ %.%. . .| ' Y ' | %.u.u.%.' ( '  .%.3.u. .' ' '  . .%.3.| _ ) | |  . .} ! A ",
"=.-.M.f.f.c.f.%.[ %.d.f.f.S.f.%.[  .p.f.c.d.%.[ [ %.d.f.f.d.u. .[  .p.f.c.c.d. .[ %.p.f.f.f.u. . .u.p.f.f.c.p.3.3.3.d.f.J.f.+.] ",
";.q.F.J.J.U.J.u. .u.c.S.J.L.c.u. .u.c.L.U.S.u. .| u.c.J.S.c.d.u. .u.f.J.L.J.f.%. .u.c.S.S.S.d.u.u.d.c.S.J.S.d.4.4.d.c.J.Y.J.u.} ",
";.e.R.U.J.U.J.u. .u.c.J.L.L.f.u.u.c.L.Y.Y.J.f.u.u.f.J.L.J.J.c.p.u.d.J.U.Y.U.c.u.%.d.J.L.J.J.f.p.d.S.U.U.U.J.d.4.4.d.S.J.U.J.,.] ",
"0.y._.Y.U.Y.J.p.%.p.J.U.U.U.f.u.f.J.Y.Y.U.J.f.p.d.S.U.L.J.U.J.d.u.f.U.Y.Y.U.f.3.%.f.J.U.L.J.c.d.f.L./.Y.Y.J.c.d.d.S.J.U.Y.J.+.P ",
"2.t.R.`.Y.Y.U.d.u.c.U.Y./.Y.S.f.J.Y./.Y.U.J.c.f.S.Y.Y.U.U.Y.L.d.u.c.Y././.U.f.%.3.f.U.Y.U.U.S.f.c.Y. X`.Y.U.S.c.S.U.Y.`.Y.J.,.~ ",
"3.f.P././.Y.J.p.u.c.Y.`.`./.J.c.L.`.XXXX XY.J.c.J./. X X`.`.Y.f.u.c./. X XY.c.u.u.S./.`./.Y.L.c.J.`.OXOX X/.F.x.F.^.]. X XP.a.} ",
"R *.n.P.U.S.u.| [ p.L.Y.Y.Y.S.p.f.U. XOXOXY.c.u.u.J./. X X`.J.u.| u.J.Y.Y.L.d. . .f.U././.Y.S.f.c.Y. XOX XY.d.3.d.I.`. X XY.i.} ",
"C I *.u.3. .( S Z ' u.u.u.u.%.' Y  .c.L.J.d.[ S S [ p.S.S.d. .H Z H  .u.u.3.' S S ' u.p.p.u. .' [ 3.f.c.c.p.[ S ( 3.d.S.J.f.+.] ",
"e w C V Z Z k : : k Z Z Z Z Z k > k G Y H S k : + 2 Z H G Z k : : 2 Z k Z Z k : : k S S S S Z j k Z S S S S j : : j Z H H F F F ",
"e e @ @ + : - + + : - O O + - - O O O O O + - + O O O O O O O O - 2 : O O : : + - : - + - : : - - - + O . O & & O o O - - - ; y ",
"w w e @ - 2 2 : > > : - + : > : : : - + O - : : - - + O O + - : 2 k > O + > > : : > : + - : 1 : : : : O O - 1 j : % - : ; - ; y ",
"Z A A k j Z Z z Z Z Z k k Z Z Z Z Z Z k k k Z k k k k k k V Z Z Z S Z 2 2 Z Z k k k k k k z Z Z Z Z Z k k Z S G z l z Z Z Z y y ",
"Q Q _ G S Y Y H H Y Y G G H Y ( ( ' ' Y H H Y Y Y Y Y H H Y Y Y ( ' Y Z S H Y H H Y H S G Y Y Y ( ( Y H H Y ( ( ( H H H H H F F ",
";.-.>.( Y | | | | | [ ( ' [ |  .%.%. .[ [ [  . . . . .[ [ |  . . . .[ Y ' |  .[ [ | [ ' ' | |  . . .| [ [ | | [ [ [ | | | ] ] P ",
"-.5.6.| [ %.u.u.u.u.%.| | %.u.u.u.u.u. . .%.u.u.u.u.u.%.%.u.u.u.u.u.%.[  .u.u.u.u.u.%. . .%.3.u.u.u.3. . .%.3.3.3.3.3.%. . .] P ",
"9.q.e.| | p.d.d.d.d.u.%.%.u.p.d.d.p.u.%.%.u.p.d.d.d.p.u.u.p.d.d.f.d.u. .%.d.f.d.d.d.u.%.%.3.p.d.d.p.3. . .u.p.d.d.d.d.u.u.+.] I ",
"9.w.e. . .d.c.c.c.f.u.3.3.u.f.f.f.d.u.%.%.u.d.f.f.c.d.u.u.d.f.f.f.f.u. .%.f.c.f.f.f.p.%.%.u.d.f.f.p.u. . .u.d.x.x.c.d.u.u.u.] F ",
"q.e.s. . .f.S.S.S.c.d.3.3.p.f.c.c.f.p.3.%.u.f.S.S.c.f.u.u.f.c.c.c.f.u. .%.c.S.c.c.c.d.u.%.u.f.c.c.f.u. .%.p.c.S.S.S.d.u.i.i.} I ",
"3.d.d.%. .f.J.J.J.J.d.3.%.p.f.c.c.c.d.u.u.p.c.J.J.S.f.u.p.c.J.S.S.c.u. .u.c.S.c.c.c.f.u.%.u.c.J.S.f.u.%.3.d.S.S.S.S.d.u.f.j.+.! ",
"u.a.c.%. .c.U.L.U.J.f.u.%.p.f.S.J.S.f.p.u.f.S.J.L.J.f.&.p.J.U.L.L.J.p.%.u.J.J.S.S.S.c.u.3.p.c.L.J.c.p.%.u.c.H.H.F.S.f.p.f.J.a.] ",
"f.b.J.u.3.S./.`./.U.c.u.u.f.J.Y.Y.U.S.f.d.S.Y./.Y.U.c.3.d.Y. X`./.U.f.u.d.U.Y.U.Y.U.S.u.u.f.U.`./.I.f.u.f.U./._.Y.I.c.p.N.Y.a.} ",
"c.L.U.p.u.I.oXOXoX`.F.3.3.S.`.oXoX`.I.N.N.U.].OXoXY.N. .d.`.=XOX].Y.S.u.d.Y.oXoXoX`.J.u.3.N.E.OXOXE.N.d.S.`.oX[.`.U.x.3.f.Y.j.} ",
"p.z.c. .| M.R.`.R.I.d.{ _ s.I.E.U.F.d.3.3.N.U.E.U.S.3.( | I.`.E.I.S.6.| 3.S.Y.`.E.I.d.| { 3.F.`.R.S.3.| s.F.U.H.H.x.$.( >.Z.i.~ ",
"T Y ' S c (  . .| | _ c z W | | | ( W G G ( | | { ( S 6 S | 3.| { _ ( G G ( | >.>.| ( c c E { | | ( G c G _ _ ) ` U x j H } ] L ",
"= & : % - 1 j 2 2 l l % % 1 z 2 : : : : : 1 j 1 : : % % % j z 1 : 1 2 % % 1 1 j j j 1 : % 1 2 1 1 : % O : 1 1 * * & O O > A A a ",
"    o O % % % O O & : % O & : % O O % % % & % O O O O % O % % O o % : O O % O O O % % O % % % O O O O O O % O o o O O O - ; y y ",
"= * 1 1 1 1 : O O : 1 1 : j 1 : % : 1 1 1 k 1 : & : 1 j 1 : : O O : 1 : - > - O O % : : 1 1 : O O & > : > 1 : & & & : 1 2 ; y y ",
"B B v x S S z j : k z k z S S z k Z Z Z Z S S Z z x S S Z z z z z S S x Z S x k > j k z Z Z z k j k Z Z Z Z z l j k z G Z Z Z A ",
"n N / / Y ( Y S k S U G Y ( ( Y U Y Y Y Y Y Y Y Y Y Y Y Y Y Y Y Y ( Y Y Y [ ) G Z Z U U Y Y Y G G Y Y Y Y Y Y U v S H ( ! F I L ",
"n N ` ) | %.%.) Y Y ) ( [ %.%.[ ) ) [ [ [ [ | [ [ [ [ ) ) [ #.| [ | | [ | %.%.[ Y Y [ | | #.| ) ( [ [ [ [ [ [ ) ( ( ' | ..] P P ",
"M =.2.3.4.d.p.%.[ | $.%.%.p.p.%.| | %.%.%.%.$.%.#.#.%.%.%.%.$.#.#.%.%.%.%.p.p.#.) | %.%.4.4.%.%.#.%.%.%.%.%.%.$.$.$.$.%.+.} ] P ",
"N 1.8.x.z.c.c.%.%.%.p.p.d.c.d.%.#.%.p.p.p.p.%.$.%.%.p.p.p.p.%.#.#.$.p.p.d.c.d.%.#.$.p.d.x.x.p.%.%.%.p.p.p.p.p.4.$.3.4.p.a.i.O.P ",
"=.1.t.c.c.v.c.p.$.4.x.c.c.c.z.%.%.%.c.c.c.c.p.%.%.4.z.c.c.d.%.%.#.%.l.c.c.v.c.4.$.%.d.c.c.c.d.%.%.d.c.c.c.c.p.4.3.4.c.c.b.j.O.P ",
"N 2.A.D.D.L.c.p.$.p.c.v.v.c.d.%.%.d.v.L.L.c.d.p.4.d.c.L.c.c.p.%.%.d.c.c.L.L.c.p.%.p.c.c.c.c.l.p.p.c.D.D.v.c.x.4.4.x.S.J.J.K.@.~ ",
"1.7.H.L.L.L.c.p.$.p.c.v.L.v.d.%.p.c.L.L.L.D.c.p.d.c.v.c.c.c.d.p.p.c.c.v.L.U.v.p.%.d.c.c.c.c.z.p.l.c.L.L.L.c.x.p.d.c.J.U.P.K.@.o.",
"7.A.^.(.L.L.c.&.%.p.c.L.L.L.l.p.c.D.L.L.L.D.c.d.z.v.L.c.c.D.c.p.p.c.L.v.L.U.c.4.%.d.v.L.c.c.c.p.z.v.U.U.L.v.c.d.x.S.J.J.K.j.@.] ",
"7.A././.^.(.c.4.%.d.L.^.^.^.c.z.c.L.^.^.^.L.c.x.c.L.^.U.U.^.c.4.p.c.U.U.^.U.c.3.%.c.L.U.U.U.c.p.z.L./.`./.U.c.x.c.U.Y.P.P.j.@.o.",
"$.x.^.`.`.^.S.p.%.c.^./.XX/.U.c.S.U.`.XXXX/.L.x.c.L.XXXXXXXXL.3.%.c./././.^.c.3.4.c.^.`.XX/.L.d.c.^.+X%XXX/.c.d.S./. X X XP.h.O.",
"Y $.c.L.U.D.p.| [ p.D.U.^.^.v.p.p.c./.XXXX/.c.%.%.d.^.XXXX/.c.| [ p.D.L.L.c.3.| #.d.L.^./.^.c.%.p.L.XXXX`.L.p.$.p.L./. X XP.i.O.",
"x U | $.%.| Y x k Y #.%.%.%.#.Y Y [ 4.x.c.p.[ G Z Y %.d.c.p.[ z k Y #.#.| | Y x S Y %.3.4.%.[ Y Y %.d.d.d.%.U Z Y #.p.a.a.i.O.P ",
"j j z z z z j % O j S z z S z k > j Z S S S k : : j z z S S j O % k z k k z 1 % - k z Z S Z j > 1 z G S S z : O > j k A J I K u ",
"h j : - : 1 : % O : 1 : % 1 1 : : : % O % : : : : 1 : O O : : % & 1 1 % : 1 1 % % : 1 : % : : & & : : & - : - O O O O O @ t t t ",
"l l j 1 1 j z j j z z 1 : j l j l j 1 : : 1 l l l l 1 % % 1 j j z S j : 1 z z j j l j 1 : 1 j l l j 1 % : j j k k j : + @ t t t ",
"b / / x c G ( Y Y ( Y c l G H H H H G G G H ( H G H H Z c G H ( _ _ H z Z ( ( U ( ( H Z c G ( ( ( H G c Z H Y Y Y Y J A C A K u ",
"` 2.7._ ( { | | | >.:.( W { | :.| | { { | | :.| | |  .| { | | >.3.3.| W ( |  .| | | | _ ( { | 3.>.| { ( { | | [ #.%. ...] R I I ",
"1.7.t.3.| 3.s.s.d.N.d.>.| 3.d.d.d.d.3.>.3.s.d.d.d.d.d.s.6.d.d.d.N.N.s.| >.s.d.s.d.d.s.>.>.6.d.d.d.d.6.3.3.d.p.4.d.c.f.u.&.@.o.P ",
"2.t.H.d.3.f.F.F.J.I.S.3.3.d.J.I.I.I.N.3.3.d.S.F.J.I.F.d.d.S.J.J.J.F.N.s.d.F.S.S.I.I.f.3.u.S.F.I.L.L.S.u.s.S.S.S.U.U.J.a.g.j.@.o.",
"w.y.H.x.p.S.Y././.Y.F.p.3.c.U././.`.L.3.3.c.U.U.Y./.U.c.d.J.Y./.U.L.c.d.c.U.U.U.`.`.S.3.u.L././././.L.4.u.S.U.^.`.`.L.a.j.K.h.X.",
"w.G.^.S.c.L.`.`.`.`.^.c.p.S./.`.`.XXY.d.p.L././.`.`.^.c.c.U.`.`./.U.S.d.S./././.XXXXL.4.p.U.`.`.`.`.L.u.p.U./.`.XX'.L.a.b.!.h.X.",
"y.T.[.U.J.Y. X XXXOX].J.c.U.`.`.`.XX/.c.d.U.].]. X X/.S.S./.oXOX X`.I.d.c.`.XX`.oXOX/.d.d.U.`.`.`.`.U.d.d./.oXoXOXoXY.b.P.!.h.X.",
"G.{.,X`.J.`.OX+X+X=XOXU.J.E.oXOXOX+X`.S.S.`.OX=X,X=X`.S.J.OX,X,X,X,X`.f.S.OX,X+X=X,XoXF.S.`.OXOXOXOX`.S.J.OX<X<X<X,XOX!..X@XQ.o.",
").|.<X`.U.OX3X4X3X3X+XY.I.`.=X2X2X,XOXI.I.OX3X8X8X4XOXI.Y.,X8X8X8X8X=XJ.U.2X8X4X3X4X=XY.U.OX3X3X3X3XOXY.E.,X8X0X0X4X>X.X#X>X!.<.",
"{.*X<XE.I.OX7X8X8X3XOXI.J.`.,X4X4X3XOXI.U.=X7X9XqX9XOXI.E.3X8X8X8X9X2XI.U.3X9X8X4X3X=XE.E.*X3X4X4X3XOXE.E.=X4X7X4X3X+X~..X@X!.<.",
"U.`.`.N.s.R.=X=X*XoXU.s.s.I.].OXOXoXU.N.N.E.*X3X3X=XR.d.N.`.*X*X*X=X`.s.s.oX,X=XOX].I.M.M.I.].OXoX`.I.M.M.U.E.].E.E.S.s.V.Z.k.O.",
"{ | :.E E { s.s.6.6.:.E D _ >.>.>.:.{ _ { >.6.s.M.s.{ E W :.>.3.6.s.{ c S >.s.6.3.:.( D D W { :.:.{ W D D ( { { { { W s F } ^ f ",
"# % , % , 6 7 7 6 c c , , , 7 , , 6 6 , 6 c 7 7 7 7 , , , 6 6 6 c c , . # 6 c c 6 6 , % # , , , , , % # % , , , , 5 , # < d d r ",
", , , , 4 7 7 , , 7 s 7 4 7 7 , , , 7 7 7 7 4 , 4 , , , 7 7 , 6 7 7 , # , 7 7 7 7 8 7 4 , 6 4 4 4 7 7 4 4 5 4 4 4 4 4 $ 5 d d $ ",
"a a a s s D s 5 7 s D s 8 D D 7 7 7 s D D D 7 7 8 8 5 8 D 8 7 8 D s 8 8 s s s 8 s D D D D D s 8 8 D D D D s 8 9 9 9 9 9 d g d 3 "
};
